<svg version="1.1" baseProfile="full" xmlns="http://www.w3.org/2000/svg"
width="1024" height="31.03"
viewBox="-1 -1 66 2"
>
<rect x="-1" y="-1" width="100%" height="100%" fill="white" />
<path stroke="green" stroke-width="0.04" stroke-linecap="round" fill="none"
transform="scale(1 -1)"
d="	M 0 0
	L 1 0
	L 2 0
	L 3 0
	L 4 0
	L 5 0
	L 6 0
	L 7 0
	L 8 0
	L 9 0
	L 10 0
	L 11 0
	L 12 0
	L 13 0
	L 14 0
	L 15 0
	L 16 0
	L 17 0
	L 18 0
	L 19 0
	L 20 0
	L 21 0
	L 22 0
	L 23 0
	L 24 0
	L 25 0
	L 26 0
	L 27 0
	L 28 0
	L 29 0
	L 30 0
	L 31 0
	L 32 0
	L 33 0
	L 34 0
	L 35 0
	L 36 0
	L 37 0
	L 38 0
	L 39 0
	L 40 0
	L 41 0
	L 42 0
	L 43 0
	L 44 0
	L 45 0
	L 46 0
	L 47 0
	L 48 0
	L 49 0
	L 50 0
	L 51 0
	L 52 0
	L 53 0
	L 54 0
	L 55 0
	L 56 0
	L 57 0
	L 58 0
	L 59 0
	L 60 0
	L 61 0
	L 62 0
	L 63 0
	L 64 0
"/>
</svg>
