<svg version="1.1" baseProfile="full" xmlns="http://www.w3.org/2000/svg"
width="888.3" height="1024"
viewBox="-1 -94.53 164 189.1"
>
<rect x="-1" y="-94.53" width="100%" height="100%" fill="white" />
<path stroke="green" stroke-width="0.04" stroke-linecap="round" fill="none"
transform="scale(1 -1)"
d="	M 0 0
	L 0.5 -0.866
	L -1.79e-13 -1.732
	L 1 -1.732
	L 1.5 -2.598
	L 1 -3.464
	L -3.58e-13 -3.464
	L 0.5 -4.33
	L -5.371e-13 -5.196
	L 1 -5.196
	L 1.5 -6.062
	L 2 -5.196
	L 3 -5.196
	L 3.5 -6.062
	L 3 -6.928
	L 4 -6.928
	L 4.5 -7.794
	L 4 -8.66
	L 3 -8.66
	L 3.5 -9.526
	L 3 -10.39
	L 2 -10.39
	L 1.5 -9.526
	L 1 -10.39
	L -1.074e-12 -10.39
	L 0.5 -11.26
	L -1.253e-12 -12.12
	L 1 -12.12
	L 1.5 -12.99
	L 1 -13.86
	L -1.432e-12 -13.86
	L 0.5 -14.72
	L -1.611e-12 -15.59
	L 1 -15.59
	L 1.5 -16.45
	L 2 -15.59
	L 3 -15.59
	L 3.5 -16.45
	L 3 -17.32
	L 4 -17.32
	L 4.5 -18.19
	L 5 -17.32
	L 6 -17.32
	L 5.5 -16.45
	L 6 -15.59
	L 7 -15.59
	L 7.5 -16.45
	L 8 -15.59
	L 9 -15.59
	L 9.5 -16.45
	L 9 -17.32
	L 10 -17.32
	L 10.5 -18.19
	L 10 -19.05
	L 9 -19.05
	L 9.5 -19.92
	L 9 -20.78
	L 10 -20.78
	L 10.5 -21.65
	L 11 -20.78
	L 12 -20.78
	L 12.5 -21.65
	L 12 -22.52
	L 13 -22.52
	L 13.5 -23.38
	L 13 -24.25
	L 12 -24.25
	L 12.5 -25.11
	L 12 -25.98
	L 11 -25.98
	L 10.5 -25.11
	L 10 -25.98
	L 9 -25.98
	L 9.5 -26.85
	L 9 -27.71
	L 10 -27.71
	L 10.5 -28.58
	L 10 -29.44
	L 9 -29.44
	L 9.5 -30.31
	L 9 -31.18
	L 8 -31.18
	L 7.5 -30.31
	L 7 -31.18
	L 6 -31.18
	L 5.5 -30.31
	L 6 -29.44
	L 5 -29.44
	L 4.5 -28.58
	L 4 -29.44
	L 3 -29.44
	L 3.5 -30.31
	L 3 -31.18
	L 2 -31.18
	L 1.5 -30.31
	L 1 -31.18
	L -3.226e-12 -31.18
	L 0.5 -32.04
	L -3.405e-12 -32.91
	L 1 -32.91
	L 1.5 -33.77
	L 1 -34.64
	L -3.584e-12 -34.64
	L 0.5 -35.51
	L -3.763e-12 -36.37
	L 1 -36.37
	L 1.5 -37.24
	L 2 -36.37
	L 3 -36.37
	L 3.5 -37.24
	L 3 -38.11
	L 4 -38.11
	L 4.5 -38.97
	L 4 -39.84
	L 3 -39.84
	L 3.5 -40.7
	L 3 -41.57
	L 2 -41.57
	L 1.5 -40.7
	L 1 -41.57
	L -4.301e-12 -41.57
	L 0.5 -42.44
	L -4.48e-12 -43.3
	L 1 -43.3
	L 1.5 -44.17
	L 1 -45.03
	L -4.659e-12 -45.03
	L 0.5 -45.9
	L -4.838e-12 -46.77
	L 1 -46.77
	L 1.5 -47.63
	L 2 -46.77
	L 3 -46.77
	L 3.5 -47.63
	L 3 -48.5
	L 4 -48.5
	L 4.5 -49.36
	L 5 -48.5
	L 6 -48.5
	L 5.5 -47.63
	L 6 -46.77
	L 7 -46.77
	L 7.5 -47.63
	L 8 -46.77
	L 9 -46.77
	L 9.5 -47.63
	L 9 -48.5
	L 10 -48.5
	L 10.5 -49.36
	L 10 -50.23
	L 9 -50.23
	L 9.5 -51.1
	L 9 -51.96
	L 10 -51.96
	L 10.5 -52.83
	L 11 -51.96
	L 12 -51.96
	L 12.5 -52.83
	L 12 -53.69
	L 13 -53.69
	L 13.5 -54.56
	L 14 -53.69
	L 15 -53.69
	L 14.5 -52.83
	L 15 -51.96
	L 16 -51.96
	L 16.5 -52.83
	L 17 -51.96
	L 18 -51.96
	L 17.5 -51.1
	L 18 -50.23
	L 17 -50.23
	L 16.5 -49.36
	L 17 -48.5
	L 18 -48.5
	L 17.5 -47.63
	L 18 -46.77
	L 19 -46.77
	L 19.5 -47.63
	L 20 -46.77
	L 21 -46.77
	L 21.5 -47.63
	L 21 -48.5
	L 22 -48.5
	L 22.5 -49.36
	L 23 -48.5
	L 24 -48.5
	L 23.5 -47.63
	L 24 -46.77
	L 25 -46.77
	L 25.5 -47.63
	L 26 -46.77
	L 27 -46.77
	L 27.5 -47.63
	L 27 -48.5
	L 28 -48.5
	L 28.5 -49.36
	L 28 -50.23
	L 27 -50.23
	L 27.5 -51.1
	L 27 -51.96
	L 28 -51.96
	L 28.5 -52.83
	L 29 -51.96
	L 30 -51.96
	L 30.5 -52.83
	L 30 -53.69
	L 31 -53.69
	L 31.5 -54.56
	L 31 -55.43
	L 30 -55.43
	L 30.5 -56.29
	L 30 -57.16
	L 29 -57.16
	L 28.5 -56.29
	L 28 -57.16
	L 27 -57.16
	L 27.5 -58.02
	L 27 -58.89
	L 28 -58.89
	L 28.5 -59.76
	L 28 -60.62
	L 27 -60.62
	L 27.5 -61.49
	L 27 -62.35
	L 28 -62.35
	L 28.5 -63.22
	L 29 -62.35
	L 30 -62.35
	L 30.5 -63.22
	L 30 -64.09
	L 31 -64.09
	L 31.5 -64.95
	L 32 -64.09
	L 33 -64.09
	L 32.5 -63.22
	L 33 -62.35
	L 34 -62.35
	L 34.5 -63.22
	L 35 -62.35
	L 36 -62.35
	L 36.5 -63.22
	L 36 -64.09
	L 37 -64.09
	L 37.5 -64.95
	L 37 -65.82
	L 36 -65.82
	L 36.5 -66.68
	L 36 -67.55
	L 37 -67.55
	L 37.5 -68.42
	L 38 -67.55
	L 39 -67.55
	L 39.5 -68.42
	L 39 -69.28
	L 40 -69.28
	L 40.5 -70.15
	L 41.5 -70.15
	L 42 -71.01
	L 42.5 -70.15
	L 43.5 -70.15
	L 44 -71.01
	L 43.5 -71.88
	L 44.5 -71.88
	L 45 -72.75
	L 45.5 -71.88
	L 46.5 -71.88
	L 46 -71.01
	L 46.5 -70.15
	L 47.5 -70.15
	L 48 -71.01
	L 48.5 -70.15
	L 49.5 -70.15
	L 50 -71.01
	L 49.5 -71.88
	L 50.5 -71.88
	L 51 -72.75
	L 50.5 -73.61
	L 49.5 -73.61
	L 50 -74.48
	L 49.5 -75.34
	L 50.5 -75.34
	L 51 -76.21
	L 51.5 -75.34
	L 52.5 -75.34
	L 53 -76.21
	L 52.5 -77.08
	L 53.5 -77.08
	L 54 -77.94
	L 54.5 -77.08
	L 55.5 -77.08
	L 55 -76.21
	L 55.5 -75.34
	L 56.5 -75.34
	L 57 -76.21
	L 57.5 -75.34
	L 58.5 -75.34
	L 58 -74.48
	L 58.5 -73.61
	L 57.5 -73.61
	L 57 -72.75
	L 57.5 -71.88
	L 58.5 -71.88
	L 58 -71.01
	L 58.5 -70.15
	L 59.5 -70.15
	L 60 -71.01
	L 60.5 -70.15
	L 61.5 -70.15
	L 62 -71.01
	L 61.5 -71.88
	L 62.5 -71.88
	L 63 -72.75
	L 63.5 -71.88
	L 64.5 -71.88
	L 64 -71.01
	L 64.5 -70.15
	L 65.5 -70.15
	L 66 -71.01
	L 66.5 -70.15
	L 67.5 -70.15
	L 68 -71.01
	L 67.5 -71.88
	L 68.5 -71.88
	L 69 -72.75
	L 68.5 -73.61
	L 67.5 -73.61
	L 68 -74.48
	L 67.5 -75.34
	L 68.5 -75.34
	L 69 -76.21
	L 69.5 -75.34
	L 70.5 -75.34
	L 71 -76.21
	L 70.5 -77.08
	L 71.5 -77.08
	L 72 -77.94
	L 71.5 -78.81
	L 70.5 -78.81
	L 71 -79.67
	L 70.5 -80.54
	L 69.5 -80.54
	L 69 -79.67
	L 68.5 -80.54
	L 67.5 -80.54
	L 68 -81.41
	L 67.5 -82.27
	L 68.5 -82.27
	L 69 -83.14
	L 68.5 -84
	L 67.5 -84
	L 68 -84.87
	L 67.5 -85.74
	L 68.5 -85.74
	L 69 -86.6
	L 69.5 -85.74
	L 70.5 -85.74
	L 71 -86.6
	L 70.5 -87.47
	L 71.5 -87.47
	L 72 -88.33
	L 72.5 -87.47
	L 73.5 -87.47
	L 73 -86.6
	L 73.5 -85.74
	L 74.5 -85.74
	L 75 -86.6
	L 75.5 -85.74
	L 76.5 -85.74
	L 77 -86.6
	L 76.5 -87.47
	L 77.5 -87.47
	L 78 -88.33
	L 77.5 -89.2
	L 76.5 -89.2
	L 77 -90.07
	L 76.5 -90.93
	L 77.5 -90.93
	L 78 -91.8
	L 78.5 -90.93
	L 79.5 -90.93
	L 80 -91.8
	L 79.5 -92.66
	L 80.5 -92.66
	L 81 -93.53
	L 81.5 -92.66
	L 82.5 -92.66
	L 82 -91.8
	L 82.5 -90.93
	L 83.5 -90.93
	L 84 -91.8
	L 84.5 -90.93
	L 85.5 -90.93
	L 85 -90.07
	L 85.5 -89.2
	L 84.5 -89.2
	L 84 -88.33
	L 84.5 -87.47
	L 85.5 -87.47
	L 85 -86.6
	L 85.5 -85.74
	L 86.5 -85.74
	L 87 -86.6
	L 87.5 -85.74
	L 88.5 -85.74
	L 89 -86.6
	L 88.5 -87.47
	L 89.5 -87.47
	L 90 -88.33
	L 90.5 -87.47
	L 91.5 -87.47
	L 91 -86.6
	L 91.5 -85.74
	L 92.5 -85.74
	L 93 -86.6
	L 93.5 -85.74
	L 94.5 -85.74
	L 94 -84.87
	L 94.5 -84
	L 93.5 -84
	L 93 -83.14
	L 93.5 -82.27
	L 94.5 -82.27
	L 94 -81.41
	L 94.5 -80.54
	L 93.5 -80.54
	L 93 -79.67
	L 92.5 -80.54
	L 91.5 -80.54
	L 91 -79.67
	L 91.5 -78.81
	L 90.5 -78.81
	L 90 -77.94
	L 90.5 -77.08
	L 91.5 -77.08
	L 91 -76.21
	L 91.5 -75.34
	L 92.5 -75.34
	L 93 -76.21
	L 93.5 -75.34
	L 94.5 -75.34
	L 94 -74.48
	L 94.5 -73.61
	L 93.5 -73.61
	L 93 -72.75
	L 93.5 -71.88
	L 94.5 -71.88
	L 94 -71.01
	L 94.5 -70.15
	L 95.5 -70.15
	L 96 -71.01
	L 96.5 -70.15
	L 97.5 -70.15
	L 98 -71.01
	L 97.5 -71.88
	L 98.5 -71.88
	L 99 -72.75
	L 99.5 -71.88
	L 100.5 -71.88
	L 100 -71.01
	L 100.5 -70.15
	L 101.5 -70.15
	L 102 -71.01
	L 102.5 -70.15
	L 103.5 -70.15
	L 104 -71.01
	L 103.5 -71.88
	L 104.5 -71.88
	L 105 -72.75
	L 104.5 -73.61
	L 103.5 -73.61
	L 104 -74.48
	L 103.5 -75.34
	L 104.5 -75.34
	L 105 -76.21
	L 105.5 -75.34
	L 106.5 -75.34
	L 107 -76.21
	L 106.5 -77.08
	L 107.5 -77.08
	L 108 -77.94
	L 108.5 -77.08
	L 109.5 -77.08
	L 109 -76.21
	L 109.5 -75.34
	L 110.5 -75.34
	L 111 -76.21
	L 111.5 -75.34
	L 112.5 -75.34
	L 112 -74.48
	L 112.5 -73.61
	L 111.5 -73.61
	L 111 -72.75
	L 111.5 -71.88
	L 112.5 -71.88
	L 112 -71.01
	L 112.5 -70.15
	L 113.5 -70.15
	L 114 -71.01
	L 114.5 -70.15
	L 115.5 -70.15
	L 116 -71.01
	L 115.5 -71.88
	L 116.5 -71.88
	L 117 -72.75
	L 117.5 -71.88
	L 118.5 -71.88
	L 118 -71.01
	L 118.5 -70.15
	L 119.5 -70.15
	L 120 -71.01
	L 120.5 -70.15
	L 121.5 -70.15
	L 122 -69.28
	L 123 -69.28
	L 122.5 -68.42
	L 123 -67.55
	L 124 -67.55
	L 124.5 -68.42
	L 125 -67.55
	L 126 -67.55
	L 125.5 -66.68
	L 126 -65.82
	L 125 -65.82
	L 124.5 -64.95
	L 125 -64.09
	L 126 -64.09
	L 125.5 -63.22
	L 126 -62.35
	L 127 -62.35
	L 127.5 -63.22
	L 128 -62.35
	L 129 -62.35
	L 129.5 -63.22
	L 129 -64.09
	L 130 -64.09
	L 130.5 -64.95
	L 131 -64.09
	L 132 -64.09
	L 131.5 -63.22
	L 132 -62.35
	L 133 -62.35
	L 133.5 -63.22
	L 134 -62.35
	L 135 -62.35
	L 134.5 -61.49
	L 135 -60.62
	L 134 -60.62
	L 133.5 -59.76
	L 134 -58.89
	L 135 -58.89
	L 134.5 -58.02
	L 135 -57.16
	L 134 -57.16
	L 133.5 -56.29
	L 133 -57.16
	L 132 -57.16
	L 131.5 -56.29
	L 132 -55.43
	L 131 -55.43
	L 130.5 -54.56
	L 131 -53.69
	L 132 -53.69
	L 131.5 -52.83
	L 132 -51.96
	L 133 -51.96
	L 133.5 -52.83
	L 134 -51.96
	L 135 -51.96
	L 134.5 -51.1
	L 135 -50.23
	L 134 -50.23
	L 133.5 -49.36
	L 134 -48.5
	L 135 -48.5
	L 134.5 -47.63
	L 135 -46.77
	L 136 -46.77
	L 136.5 -47.63
	L 137 -46.77
	L 138 -46.77
	L 138.5 -47.63
	L 138 -48.5
	L 139 -48.5
	L 139.5 -49.36
	L 140 -48.5
	L 141 -48.5
	L 140.5 -47.63
	L 141 -46.77
	L 142 -46.77
	L 142.5 -47.63
	L 143 -46.77
	L 144 -46.77
	L 144.5 -47.63
	L 144 -48.5
	L 145 -48.5
	L 145.5 -49.36
	L 145 -50.23
	L 144 -50.23
	L 144.5 -51.1
	L 144 -51.96
	L 145 -51.96
	L 145.5 -52.83
	L 146 -51.96
	L 147 -51.96
	L 147.5 -52.83
	L 147 -53.69
	L 148 -53.69
	L 148.5 -54.56
	L 149 -53.69
	L 150 -53.69
	L 149.5 -52.83
	L 150 -51.96
	L 151 -51.96
	L 151.5 -52.83
	L 152 -51.96
	L 153 -51.96
	L 152.5 -51.1
	L 153 -50.23
	L 152 -50.23
	L 151.5 -49.36
	L 152 -48.5
	L 153 -48.5
	L 152.5 -47.63
	L 153 -46.77
	L 154 -46.77
	L 154.5 -47.63
	L 155 -46.77
	L 156 -46.77
	L 156.5 -47.63
	L 156 -48.5
	L 157 -48.5
	L 157.5 -49.36
	L 158 -48.5
	L 159 -48.5
	L 158.5 -47.63
	L 159 -46.77
	L 160 -46.77
	L 160.5 -47.63
	L 161 -46.77
	L 162 -46.77
	L 161.5 -45.9
	L 162 -45.03
	L 161 -45.03
	L 160.5 -44.17
	L 161 -43.3
	L 162 -43.3
	L 161.5 -42.44
	L 162 -41.57
	L 161 -41.57
	L 160.5 -40.7
	L 160 -41.57
	L 159 -41.57
	L 158.5 -40.7
	L 159 -39.84
	L 158 -39.84
	L 157.5 -38.97
	L 158 -38.11
	L 159 -38.11
	L 158.5 -37.24
	L 159 -36.37
	L 160 -36.37
	L 160.5 -37.24
	L 161 -36.37
	L 162 -36.37
	L 161.5 -35.51
	L 162 -34.64
	L 161 -34.64
	L 160.5 -33.77
	L 161 -32.91
	L 162 -32.91
	L 161.5 -32.04
	L 162 -31.18
	L 161 -31.18
	L 160.5 -30.31
	L 160 -31.18
	L 159 -31.18
	L 158.5 -30.31
	L 159 -29.44
	L 158 -29.44
	L 157.5 -28.58
	L 157 -29.44
	L 156 -29.44
	L 156.5 -30.31
	L 156 -31.18
	L 155 -31.18
	L 154.5 -30.31
	L 154 -31.18
	L 153 -31.18
	L 152.5 -30.31
	L 153 -29.44
	L 152 -29.44
	L 151.5 -28.58
	L 152 -27.71
	L 153 -27.71
	L 152.5 -26.85
	L 153 -25.98
	L 152 -25.98
	L 151.5 -25.11
	L 151 -25.98
	L 150 -25.98
	L 149.5 -25.11
	L 150 -24.25
	L 149 -24.25
	L 148.5 -23.38
	L 149 -22.52
	L 150 -22.52
	L 149.5 -21.65
	L 150 -20.78
	L 151 -20.78
	L 151.5 -21.65
	L 152 -20.78
	L 153 -20.78
	L 152.5 -19.92
	L 153 -19.05
	L 152 -19.05
	L 151.5 -18.19
	L 152 -17.32
	L 153 -17.32
	L 152.5 -16.45
	L 153 -15.59
	L 154 -15.59
	L 154.5 -16.45
	L 155 -15.59
	L 156 -15.59
	L 156.5 -16.45
	L 156 -17.32
	L 157 -17.32
	L 157.5 -18.19
	L 158 -17.32
	L 159 -17.32
	L 158.5 -16.45
	L 159 -15.59
	L 160 -15.59
	L 160.5 -16.45
	L 161 -15.59
	L 162 -15.59
	L 161.5 -14.72
	L 162 -13.86
	L 161 -13.86
	L 160.5 -12.99
	L 161 -12.12
	L 162 -12.12
	L 161.5 -11.26
	L 162 -10.39
	L 161 -10.39
	L 160.5 -9.526
	L 160 -10.39
	L 159 -10.39
	L 158.5 -9.526
	L 159 -8.66
	L 158 -8.66
	L 157.5 -7.794
	L 158 -6.928
	L 159 -6.928
	L 158.5 -6.062
	L 159 -5.196
	L 160 -5.196
	L 160.5 -6.062
	L 161 -5.196
	L 162 -5.196
	L 161.5 -4.33
	L 162 -3.464
	L 161 -3.464
	L 160.5 -2.598
	L 161 -1.732
	L 162 -1.732
	L 161.5 -0.866
	L 162 2.554e-15
	L 161.5 0.866
	L 162 1.732
	L 161 1.732
	L 160.5 2.598
	L 161 3.464
	L 162 3.464
	L 161.5 4.33
	L 162 5.196
	L 161 5.196
	L 160.5 6.062
	L 160 5.196
	L 159 5.196
	L 158.5 6.062
	L 159 6.928
	L 158 6.928
	L 157.5 7.794
	L 158 8.66
	L 159 8.66
	L 158.5 9.526
	L 159 10.39
	L 160 10.39
	L 160.5 9.526
	L 161 10.39
	L 162 10.39
	L 161.5 11.26
	L 162 12.12
	L 161 12.12
	L 160.5 12.99
	L 161 13.86
	L 162 13.86
	L 161.5 14.72
	L 162 15.59
	L 161 15.59
	L 160.5 16.45
	L 160 15.59
	L 159 15.59
	L 158.5 16.45
	L 159 17.32
	L 158 17.32
	L 157.5 18.19
	L 157 17.32
	L 156 17.32
	L 156.5 16.45
	L 156 15.59
	L 155 15.59
	L 154.5 16.45
	L 154 15.59
	L 153 15.59
	L 152.5 16.45
	L 153 17.32
	L 152 17.32
	L 151.5 18.19
	L 152 19.05
	L 153 19.05
	L 152.5 19.92
	L 153 20.78
	L 152 20.78
	L 151.5 21.65
	L 151 20.78
	L 150 20.78
	L 149.5 21.65
	L 150 22.52
	L 149 22.52
	L 148.5 23.38
	L 149 24.25
	L 150 24.25
	L 149.5 25.11
	L 150 25.98
	L 151 25.98
	L 151.5 25.11
	L 152 25.98
	L 153 25.98
	L 152.5 26.85
	L 153 27.71
	L 152 27.71
	L 151.5 28.58
	L 152 29.44
	L 153 29.44
	L 152.5 30.31
	L 153 31.18
	L 154 31.18
	L 154.5 30.31
	L 155 31.18
	L 156 31.18
	L 156.5 30.31
	L 156 29.44
	L 157 29.44
	L 157.5 28.58
	L 158 29.44
	L 159 29.44
	L 158.5 30.31
	L 159 31.18
	L 160 31.18
	L 160.5 30.31
	L 161 31.18
	L 162 31.18
	L 161.5 32.04
	L 162 32.91
	L 161 32.91
	L 160.5 33.77
	L 161 34.64
	L 162 34.64
	L 161.5 35.51
	L 162 36.37
	L 161 36.37
	L 160.5 37.24
	L 160 36.37
	L 159 36.37
	L 158.5 37.24
	L 159 38.11
	L 158 38.11
	L 157.5 38.97
	L 158 39.84
	L 159 39.84
	L 158.5 40.7
	L 159 41.57
	L 160 41.57
	L 160.5 40.7
	L 161 41.57
	L 162 41.57
	L 161.5 42.44
	L 162 43.3
	L 161 43.3
	L 160.5 44.17
	L 161 45.03
	L 162 45.03
	L 161.5 45.9
	L 162 46.77
	L 161 46.77
	L 160.5 47.63
	L 160 46.77
	L 159 46.77
	L 158.5 47.63
	L 159 48.5
	L 158 48.5
	L 157.5 49.36
	L 157 48.5
	L 156 48.5
	L 156.5 47.63
	L 156 46.77
	L 155 46.77
	L 154.5 47.63
	L 154 46.77
	L 153 46.77
	L 152.5 47.63
	L 153 48.5
	L 152 48.5
	L 151.5 49.36
	L 152 50.23
	L 153 50.23
	L 152.5 51.1
	L 153 51.96
	L 152 51.96
	L 151.5 52.83
	L 151 51.96
	L 150 51.96
	L 149.5 52.83
	L 150 53.69
	L 149 53.69
	L 148.5 54.56
	L 148 53.69
	L 147 53.69
	L 147.5 52.83
	L 147 51.96
	L 146 51.96
	L 145.5 52.83
	L 145 51.96
	L 144 51.96
	L 144.5 51.1
	L 144 50.23
	L 145 50.23
	L 145.5 49.36
	L 145 48.5
	L 144 48.5
	L 144.5 47.63
	L 144 46.77
	L 143 46.77
	L 142.5 47.63
	L 142 46.77
	L 141 46.77
	L 140.5 47.63
	L 141 48.5
	L 140 48.5
	L 139.5 49.36
	L 139 48.5
	L 138 48.5
	L 138.5 47.63
	L 138 46.77
	L 137 46.77
	L 136.5 47.63
	L 136 46.77
	L 135 46.77
	L 134.5 47.63
	L 135 48.5
	L 134 48.5
	L 133.5 49.36
	L 134 50.23
	L 135 50.23
	L 134.5 51.1
	L 135 51.96
	L 134 51.96
	L 133.5 52.83
	L 133 51.96
	L 132 51.96
	L 131.5 52.83
	L 132 53.69
	L 131 53.69
	L 130.5 54.56
	L 131 55.43
	L 132 55.43
	L 131.5 56.29
	L 132 57.16
	L 133 57.16
	L 133.5 56.29
	L 134 57.16
	L 135 57.16
	L 134.5 58.02
	L 135 58.89
	L 134 58.89
	L 133.5 59.76
	L 134 60.62
	L 135 60.62
	L 134.5 61.49
	L 135 62.35
	L 134 62.35
	L 133.5 63.22
	L 133 62.35
	L 132 62.35
	L 131.5 63.22
	L 132 64.09
	L 131 64.09
	L 130.5 64.95
	L 130 64.09
	L 129 64.09
	L 129.5 63.22
	L 129 62.35
	L 128 62.35
	L 127.5 63.22
	L 127 62.35
	L 126 62.35
	L 125.5 63.22
	L 126 64.09
	L 125 64.09
	L 124.5 64.95
	L 125 65.82
	L 126 65.82
	L 125.5 66.68
	L 126 67.55
	L 125 67.55
	L 124.5 68.42
	L 124 67.55
	L 123 67.55
	L 122.5 68.42
	L 123 69.28
	L 122 69.28
	L 121.5 70.15
	L 120.5 70.15
	L 120 71.01
	L 119.5 70.15
	L 118.5 70.15
	L 118 71.01
	L 118.5 71.88
	L 117.5 71.88
	L 117 72.75
	L 116.5 71.88
	L 115.5 71.88
	L 116 71.01
	L 115.5 70.15
	L 114.5 70.15
	L 114 71.01
	L 113.5 70.15
	L 112.5 70.15
	L 112 71.01
	L 112.5 71.88
	L 111.5 71.88
	L 111 72.75
	L 111.5 73.61
	L 112.5 73.61
	L 112 74.48
	L 112.5 75.34
	L 111.5 75.34
	L 111 76.21
	L 110.5 75.34
	L 109.5 75.34
	L 109 76.21
	L 109.5 77.08
	L 108.5 77.08
	L 108 77.94
	L 107.5 77.08
	L 106.5 77.08
	L 107 76.21
	L 106.5 75.34
	L 105.5 75.34
	L 105 76.21
	L 104.5 75.34
	L 103.5 75.34
	L 104 74.48
	L 103.5 73.61
	L 104.5 73.61
	L 105 72.75
	L 104.5 71.88
	L 103.5 71.88
	L 104 71.01
	L 103.5 70.15
	L 102.5 70.15
	L 102 71.01
	L 101.5 70.15
	L 100.5 70.15
	L 100 71.01
	L 100.5 71.88
	L 99.5 71.88
	L 99 72.75
	L 98.5 71.88
	L 97.5 71.88
	L 98 71.01
	L 97.5 70.15
	L 96.5 70.15
	L 96 71.01
	L 95.5 70.15
	L 94.5 70.15
	L 94 71.01
	L 94.5 71.88
	L 93.5 71.88
	L 93 72.75
	L 93.5 73.61
	L 94.5 73.61
	L 94 74.48
	L 94.5 75.34
	L 93.5 75.34
	L 93 76.21
	L 92.5 75.34
	L 91.5 75.34
	L 91 76.21
	L 91.5 77.08
	L 90.5 77.08
	L 90 77.94
	L 90.5 78.81
	L 91.5 78.81
	L 91 79.67
	L 91.5 80.54
	L 92.5 80.54
	L 93 79.67
	L 93.5 80.54
	L 94.5 80.54
	L 94 81.41
	L 94.5 82.27
	L 93.5 82.27
	L 93 83.14
	L 93.5 84
	L 94.5 84
	L 94 84.87
	L 94.5 85.74
	L 93.5 85.74
	L 93 86.6
	L 92.5 85.74
	L 91.5 85.74
	L 91 86.6
	L 91.5 87.47
	L 90.5 87.47
	L 90 88.33
	L 89.5 87.47
	L 88.5 87.47
	L 89 86.6
	L 88.5 85.74
	L 87.5 85.74
	L 87 86.6
	L 86.5 85.74
	L 85.5 85.74
	L 85 86.6
	L 85.5 87.47
	L 84.5 87.47
	L 84 88.33
	L 84.5 89.2
	L 85.5 89.2
	L 85 90.07
	L 85.5 90.93
	L 84.5 90.93
	L 84 91.8
	L 83.5 90.93
	L 82.5 90.93
	L 82 91.8
	L 82.5 92.66
	L 81.5 92.66
	L 81 93.53
	L 80.5 92.66
	L 79.5 92.66
	L 80 91.8
	L 79.5 90.93
	L 78.5 90.93
	L 78 91.8
	L 77.5 90.93
	L 76.5 90.93
	L 77 90.07
	L 76.5 89.2
	L 77.5 89.2
	L 78 88.33
	L 77.5 87.47
	L 76.5 87.47
	L 77 86.6
	L 76.5 85.74
	L 75.5 85.74
	L 75 86.6
	L 74.5 85.74
	L 73.5 85.74
	L 73 86.6
	L 73.5 87.47
	L 72.5 87.47
	L 72 88.33
	L 71.5 87.47
	L 70.5 87.47
	L 71 86.6
	L 70.5 85.74
	L 69.5 85.74
	L 69 86.6
	L 68.5 85.74
	L 67.5 85.74
	L 68 84.87
	L 67.5 84
	L 68.5 84
	L 69 83.14
	L 68.5 82.27
	L 67.5 82.27
	L 68 81.41
	L 67.5 80.54
	L 68.5 80.54
	L 69 79.67
	L 69.5 80.54
	L 70.5 80.54
	L 71 79.67
	L 70.5 78.81
	L 71.5 78.81
	L 72 77.94
	L 71.5 77.08
	L 70.5 77.08
	L 71 76.21
	L 70.5 75.34
	L 69.5 75.34
	L 69 76.21
	L 68.5 75.34
	L 67.5 75.34
	L 68 74.48
	L 67.5 73.61
	L 68.5 73.61
	L 69 72.75
	L 68.5 71.88
	L 67.5 71.88
	L 68 71.01
	L 67.5 70.15
	L 66.5 70.15
	L 66 71.01
	L 65.5 70.15
	L 64.5 70.15
	L 64 71.01
	L 64.5 71.88
	L 63.5 71.88
	L 63 72.75
	L 62.5 71.88
	L 61.5 71.88
	L 62 71.01
	L 61.5 70.15
	L 60.5 70.15
	L 60 71.01
	L 59.5 70.15
	L 58.5 70.15
	L 58 71.01
	L 58.5 71.88
	L 57.5 71.88
	L 57 72.75
	L 57.5 73.61
	L 58.5 73.61
	L 58 74.48
	L 58.5 75.34
	L 57.5 75.34
	L 57 76.21
	L 56.5 75.34
	L 55.5 75.34
	L 55 76.21
	L 55.5 77.08
	L 54.5 77.08
	L 54 77.94
	L 53.5 77.08
	L 52.5 77.08
	L 53 76.21
	L 52.5 75.34
	L 51.5 75.34
	L 51 76.21
	L 50.5 75.34
	L 49.5 75.34
	L 50 74.48
	L 49.5 73.61
	L 50.5 73.61
	L 51 72.75
	L 50.5 71.88
	L 49.5 71.88
	L 50 71.01
	L 49.5 70.15
	L 48.5 70.15
	L 48 71.01
	L 47.5 70.15
	L 46.5 70.15
	L 46 71.01
	L 46.5 71.88
	L 45.5 71.88
	L 45 72.75
	L 44.5 71.88
	L 43.5 71.88
	L 44 71.01
	L 43.5 70.15
	L 42.5 70.15
	L 42 71.01
	L 41.5 70.15
	L 40.5 70.15
	L 40 69.28
	L 39 69.28
	L 39.5 68.42
	L 39 67.55
	L 38 67.55
	L 37.5 68.42
	L 37 67.55
	L 36 67.55
	L 36.5 66.68
	L 36 65.82
	L 37 65.82
	L 37.5 64.95
	L 37 64.09
	L 36 64.09
	L 36.5 63.22
	L 36 62.35
	L 35 62.35
	L 34.5 63.22
	L 34 62.35
	L 33 62.35
	L 32.5 63.22
	L 33 64.09
	L 32 64.09
	L 31.5 64.95
	L 31 64.09
	L 30 64.09
	L 30.5 63.22
	L 30 62.35
	L 29 62.35
	L 28.5 63.22
	L 28 62.35
	L 27 62.35
	L 27.5 61.49
	L 27 60.62
	L 28 60.62
	L 28.5 59.76
	L 28 58.89
	L 27 58.89
	L 27.5 58.02
	L 27 57.16
	L 28 57.16
	L 28.5 56.29
	L 29 57.16
	L 30 57.16
	L 30.5 56.29
	L 30 55.43
	L 31 55.43
	L 31.5 54.56
	L 31 53.69
	L 30 53.69
	L 30.5 52.83
	L 30 51.96
	L 29 51.96
	L 28.5 52.83
	L 28 51.96
	L 27 51.96
	L 27.5 51.1
	L 27 50.23
	L 28 50.23
	L 28.5 49.36
	L 28 48.5
	L 27 48.5
	L 27.5 47.63
	L 27 46.77
	L 26 46.77
	L 25.5 47.63
	L 25 46.77
	L 24 46.77
	L 23.5 47.63
	L 24 48.5
	L 23 48.5
	L 22.5 49.36
	L 22 48.5
	L 21 48.5
	L 21.5 47.63
	L 21 46.77
	L 20 46.77
	L 19.5 47.63
	L 19 46.77
	L 18 46.77
	L 17.5 47.63
	L 18 48.5
	L 17 48.5
	L 16.5 49.36
	L 17 50.23
	L 18 50.23
	L 17.5 51.1
	L 18 51.96
	L 17 51.96
	L 16.5 52.83
	L 16 51.96
	L 15 51.96
	L 14.5 52.83
	L 15 53.69
	L 14 53.69
	L 13.5 54.56
	L 13 53.69
	L 12 53.69
	L 12.5 52.83
	L 12 51.96
	L 11 51.96
	L 10.5 52.83
	L 10 51.96
	L 9 51.96
	L 9.5 51.1
	L 9 50.23
	L 10 50.23
	L 10.5 49.36
	L 10 48.5
	L 9 48.5
	L 9.5 47.63
	L 9 46.77
	L 8 46.77
	L 7.5 47.63
	L 7 46.77
	L 6 46.77
	L 5.5 47.63
	L 6 48.5
	L 5 48.5
	L 4.5 49.36
	L 4 48.5
	L 3 48.5
	L 3.5 47.63
	L 3 46.77
	L 2 46.77
	L 1.5 47.63
	L 1 46.77
	L -1.256e-11 46.77
	L 0.5 45.9
	L -1.202e-11 45.03
	L 1 45.03
	L 1.5 44.17
	L 1 43.3
	L -1.149e-11 43.3
	L 0.5 42.44
	L -1.095e-11 41.57
	L 1 41.57
	L 1.5 40.7
	L 2 41.57
	L 3 41.57
	L 3.5 40.7
	L 3 39.84
	L 4 39.84
	L 4.5 38.97
	L 4 38.11
	L 3 38.11
	L 3.5 37.24
	L 3 36.37
	L 2 36.37
	L 1.5 37.24
	L 1 36.37
	L -9.336e-12 36.37
	L 0.5 35.51
	L -8.799e-12 34.64
	L 1 34.64
	L 1.5 33.77
	L 1 32.91
	L -8.262e-12 32.91
	L 0.5 32.04
	L -7.724e-12 31.18
	L 1 31.18
	L 1.5 30.31
	L 2 31.18
	L 3 31.18
	L 3.5 30.31
	L 3 29.44
	L 4 29.44
	L 4.5 28.58
	L 5 29.44
	L 6 29.44
	L 5.5 30.31
	L 6 31.18
	L 7 31.18
	L 7.5 30.31
	L 8 31.18
	L 9 31.18
	L 9.5 30.31
	L 9 29.44
	L 10 29.44
	L 10.5 28.58
	L 10 27.71
	L 9 27.71
	L 9.5 26.85
	L 9 25.98
	L 10 25.98
	L 10.5 25.11
	L 11 25.98
	L 12 25.98
	L 12.5 25.11
	L 12 24.25
	L 13 24.25
	L 13.5 23.38
	L 13 22.52
	L 12 22.52
	L 12.5 21.65
	L 12 20.78
	L 11 20.78
	L 10.5 21.65
	L 10 20.78
	L 9 20.78
	L 9.5 19.92
	L 9 19.05
	L 10 19.05
	L 10.5 18.19
	L 10 17.32
	L 9 17.32
	L 9.5 16.45
	L 9 15.59
	L 8 15.59
	L 7.5 16.45
	L 7 15.59
	L 6 15.59
	L 5.5 16.45
	L 6 17.32
	L 5 17.32
	L 4.5 18.19
	L 4 17.32
	L 3 17.32
	L 3.5 16.45
	L 3 15.59
	L 2 15.59
	L 1.5 16.45
	L 1 15.59
	L -2.893e-12 15.59
	L 0.5 14.72
	L -2.356e-12 13.86
	L 1 13.86
	L 1.5 12.99
	L 1 12.12
	L -1.819e-12 12.12
	L 0.5 11.26
	L -1.281e-12 10.39
	L 1 10.39
	L 1.5 9.526
	L 2 10.39
	L 3 10.39
	L 3.5 9.526
	L 3 8.66
	L 4 8.66
	L 4.5 7.794
	L 4 6.928
	L 3 6.928
	L 3.5 6.062
	L 3 5.196
	L 2 5.196
	L 1.5 6.062
	L 1 5.196
	L 3.308e-13 5.196
	L 0.5 4.33
	L 8.682e-13 3.464
	L 1 3.464
	L 1.5 2.598
	L 1 1.732
	L 1.406e-12 1.732
	L 0.5 0.866
	L 1.943e-12 -3.396e-11
"/>
</svg>
