<svg version="1.1" baseProfile="full" xmlns="http://www.w3.org/2000/svg"
width="1024" height="452.3"
viewBox="-1 -56.43 130 57.43"
>
<rect x="-1" y="-56.43" width="100%" height="100%" fill="white" />
<path stroke="green" stroke-width="0.04" stroke-linecap="round" fill="none"
transform="scale(1 -1)"
d="	M 0 0
	L 1 0
	L 1.5 0.866
	M 1 0
	L 2 0
	L 2.5 0.866
	L 2 1.732
	M 2.5 0.866
	L 3 1.732
	M 2 0
	L 3 0
	L 3.5 0.866
	M 3 0
	L 4 0
	L 4.5 0.866
	L 4 1.732
	M 4.5 0.866
	L 5 1.732
	L 4.5 2.598
	L 3.5 2.598
	M 4.5 2.598
	L 4 3.464
	M 5 1.732
	L 5.5 2.598
	L 5 3.464
	M 5.5 2.598
	L 6 3.464
	M 4 0
	L 5 0
	L 5.5 0.866
	M 5 0
	L 6 0
	L 6.5 0.866
	L 6 1.732
	M 6.5 0.866
	L 7 1.732
	M 6 0
	L 7 0
	L 7.5 0.866
	M 7 0
	L 8 0
	L 8.5 0.866
	L 8 1.732
	M 8.5 0.866
	L 9 1.732
	L 8.5 2.598
	L 7.5 2.598
	M 8.5 2.598
	L 8 3.464
	M 9 1.732
	L 9.5 2.598
	L 9 3.464
	M 9.5 2.598
	L 10 3.464
	L 9.5 4.33
	L 8.5 4.33
	M 9.5 4.33
	L 9 5.196
	L 8 5.196
	L 7.5 4.33
	M 8 5.196
	L 7 5.196
	M 9 5.196
	L 8.5 6.062
	L 7.5 6.062
	M 8.5 6.062
	L 8 6.928
	M 10 3.464
	L 10.5 4.33
	L 10 5.196
	M 10.5 4.33
	L 11 5.196
	L 10.5 6.062
	L 9.5 6.062
	M 10.5 6.062
	L 10 6.928
	M 11 5.196
	L 11.5 6.062
	L 11 6.928
	M 11.5 6.062
	L 12 6.928
	M 8 0
	L 9 0
	L 9.5 0.866
	M 9 0
	L 10 0
	L 10.5 0.866
	L 10 1.732
	M 10.5 0.866
	L 11 1.732
	M 10 0
	L 11 0
	L 11.5 0.866
	M 11 0
	L 12 0
	L 12.5 0.866
	L 12 1.732
	M 12.5 0.866
	L 13 1.732
	L 12.5 2.598
	L 11.5 2.598
	M 12.5 2.598
	L 12 3.464
	M 13 1.732
	L 13.5 2.598
	L 13 3.464
	M 13.5 2.598
	L 14 3.464
	M 12 0
	L 13 0
	L 13.5 0.866
	M 13 0
	L 14 0
	L 14.5 0.866
	L 14 1.732
	M 14.5 0.866
	L 15 1.732
	M 14 0
	L 15 0
	L 15.5 0.866
	M 15 0
	L 16 0
	L 16.5 0.866
	L 16 1.732
	M 16.5 0.866
	L 17 1.732
	L 16.5 2.598
	L 15.5 2.598
	M 16.5 2.598
	L 16 3.464
	M 17 1.732
	L 17.5 2.598
	L 17 3.464
	M 17.5 2.598
	L 18 3.464
	L 17.5 4.33
	L 16.5 4.33
	M 17.5 4.33
	L 17 5.196
	L 16 5.196
	L 15.5 4.33
	M 16 5.196
	L 15 5.196
	M 17 5.196
	L 16.5 6.062
	L 15.5 6.062
	M 16.5 6.062
	L 16 6.928
	M 18 3.464
	L 18.5 4.33
	L 18 5.196
	M 18.5 4.33
	L 19 5.196
	L 18.5 6.062
	L 17.5 6.062
	M 18.5 6.062
	L 18 6.928
	M 19 5.196
	L 19.5 6.062
	L 19 6.928
	M 19.5 6.062
	L 20 6.928
	L 19.5 7.794
	L 18.5 7.794
	M 19.5 7.794
	L 19 8.66
	L 18 8.66
	L 17.5 7.794
	M 18 8.66
	L 17 8.66
	M 19 8.66
	L 18.5 9.526
	L 17.5 9.526
	M 18.5 9.526
	L 18 10.39
	L 17 10.39
	L 16.5 9.526
	M 17 10.39
	L 16 10.39
	L 15.5 9.526
	L 16 8.66
	M 15.5 9.526
	L 15 8.66
	M 16 10.39
	L 15 10.39
	L 14.5 9.526
	M 15 10.39
	L 14 10.39
	M 18 10.39
	L 17.5 11.26
	L 16.5 11.26
	M 17.5 11.26
	L 17 12.12
	L 16 12.12
	L 15.5 11.26
	M 16 12.12
	L 15 12.12
	M 17 12.12
	L 16.5 12.99
	L 15.5 12.99
	M 16.5 12.99
	L 16 13.86
	M 20 6.928
	L 20.5 7.794
	L 20 8.66
	M 20.5 7.794
	L 21 8.66
	L 20.5 9.526
	L 19.5 9.526
	M 20.5 9.526
	L 20 10.39
	M 21 8.66
	L 21.5 9.526
	L 21 10.39
	M 21.5 9.526
	L 22 10.39
	L 21.5 11.26
	L 20.5 11.26
	M 21.5 11.26
	L 21 12.12
	L 20 12.12
	L 19.5 11.26
	M 20 12.12
	L 19 12.12
	M 21 12.12
	L 20.5 12.99
	L 19.5 12.99
	M 20.5 12.99
	L 20 13.86
	M 22 10.39
	L 22.5 11.26
	L 22 12.12
	M 22.5 11.26
	L 23 12.12
	L 22.5 12.99
	L 21.5 12.99
	M 22.5 12.99
	L 22 13.86
	M 23 12.12
	L 23.5 12.99
	L 23 13.86
	M 23.5 12.99
	L 24 13.86
	M 16 0
	L 17 0
	L 17.5 0.866
	M 17 0
	L 18 0
	L 18.5 0.866
	L 18 1.732
	M 18.5 0.866
	L 19 1.732
	M 18 0
	L 19 0
	L 19.5 0.866
	M 19 0
	L 20 0
	L 20.5 0.866
	L 20 1.732
	M 20.5 0.866
	L 21 1.732
	L 20.5 2.598
	L 19.5 2.598
	M 20.5 2.598
	L 20 3.464
	M 21 1.732
	L 21.5 2.598
	L 21 3.464
	M 21.5 2.598
	L 22 3.464
	M 20 0
	L 21 0
	L 21.5 0.866
	M 21 0
	L 22 0
	L 22.5 0.866
	L 22 1.732
	M 22.5 0.866
	L 23 1.732
	M 22 0
	L 23 0
	L 23.5 0.866
	M 23 0
	L 24 0
	L 24.5 0.866
	L 24 1.732
	M 24.5 0.866
	L 25 1.732
	L 24.5 2.598
	L 23.5 2.598
	M 24.5 2.598
	L 24 3.464
	M 25 1.732
	L 25.5 2.598
	L 25 3.464
	M 25.5 2.598
	L 26 3.464
	L 25.5 4.33
	L 24.5 4.33
	M 25.5 4.33
	L 25 5.196
	L 24 5.196
	L 23.5 4.33
	M 24 5.196
	L 23 5.196
	M 25 5.196
	L 24.5 6.062
	L 23.5 6.062
	M 24.5 6.062
	L 24 6.928
	M 26 3.464
	L 26.5 4.33
	L 26 5.196
	M 26.5 4.33
	L 27 5.196
	L 26.5 6.062
	L 25.5 6.062
	M 26.5 6.062
	L 26 6.928
	M 27 5.196
	L 27.5 6.062
	L 27 6.928
	M 27.5 6.062
	L 28 6.928
	M 24 0
	L 25 0
	L 25.5 0.866
	M 25 0
	L 26 0
	L 26.5 0.866
	L 26 1.732
	M 26.5 0.866
	L 27 1.732
	M 26 0
	L 27 0
	L 27.5 0.866
	M 27 0
	L 28 0
	L 28.5 0.866
	L 28 1.732
	M 28.5 0.866
	L 29 1.732
	L 28.5 2.598
	L 27.5 2.598
	M 28.5 2.598
	L 28 3.464
	M 29 1.732
	L 29.5 2.598
	L 29 3.464
	M 29.5 2.598
	L 30 3.464
	M 28 0
	L 29 0
	L 29.5 0.866
	M 29 0
	L 30 0
	L 30.5 0.866
	L 30 1.732
	M 30.5 0.866
	L 31 1.732
	M 30 0
	L 31 0
	L 31.5 0.866
	M 31 0
	L 32 0
	L 32.5 0.866
	L 32 1.732
	M 32.5 0.866
	L 33 1.732
	L 32.5 2.598
	L 31.5 2.598
	M 32.5 2.598
	L 32 3.464
	M 33 1.732
	L 33.5 2.598
	L 33 3.464
	M 33.5 2.598
	L 34 3.464
	L 33.5 4.33
	L 32.5 4.33
	M 33.5 4.33
	L 33 5.196
	L 32 5.196
	L 31.5 4.33
	M 32 5.196
	L 31 5.196
	M 33 5.196
	L 32.5 6.062
	L 31.5 6.062
	M 32.5 6.062
	L 32 6.928
	M 34 3.464
	L 34.5 4.33
	L 34 5.196
	M 34.5 4.33
	L 35 5.196
	L 34.5 6.062
	L 33.5 6.062
	M 34.5 6.062
	L 34 6.928
	M 35 5.196
	L 35.5 6.062
	L 35 6.928
	M 35.5 6.062
	L 36 6.928
	L 35.5 7.794
	L 34.5 7.794
	M 35.5 7.794
	L 35 8.66
	L 34 8.66
	L 33.5 7.794
	M 34 8.66
	L 33 8.66
	M 35 8.66
	L 34.5 9.526
	L 33.5 9.526
	M 34.5 9.526
	L 34 10.39
	L 33 10.39
	L 32.5 9.526
	M 33 10.39
	L 32 10.39
	L 31.5 9.526
	L 32 8.66
	M 31.5 9.526
	L 31 8.66
	M 32 10.39
	L 31 10.39
	L 30.5 9.526
	M 31 10.39
	L 30 10.39
	M 34 10.39
	L 33.5 11.26
	L 32.5 11.26
	M 33.5 11.26
	L 33 12.12
	L 32 12.12
	L 31.5 11.26
	M 32 12.12
	L 31 12.12
	M 33 12.12
	L 32.5 12.99
	L 31.5 12.99
	M 32.5 12.99
	L 32 13.86
	M 36 6.928
	L 36.5 7.794
	L 36 8.66
	M 36.5 7.794
	L 37 8.66
	L 36.5 9.526
	L 35.5 9.526
	M 36.5 9.526
	L 36 10.39
	M 37 8.66
	L 37.5 9.526
	L 37 10.39
	M 37.5 9.526
	L 38 10.39
	L 37.5 11.26
	L 36.5 11.26
	M 37.5 11.26
	L 37 12.12
	L 36 12.12
	L 35.5 11.26
	M 36 12.12
	L 35 12.12
	M 37 12.12
	L 36.5 12.99
	L 35.5 12.99
	M 36.5 12.99
	L 36 13.86
	M 38 10.39
	L 38.5 11.26
	L 38 12.12
	M 38.5 11.26
	L 39 12.12
	L 38.5 12.99
	L 37.5 12.99
	M 38.5 12.99
	L 38 13.86
	M 39 12.12
	L 39.5 12.99
	L 39 13.86
	M 39.5 12.99
	L 40 13.86
	L 39.5 14.72
	L 38.5 14.72
	M 39.5 14.72
	L 39 15.59
	L 38 15.59
	L 37.5 14.72
	M 38 15.59
	L 37 15.59
	M 39 15.59
	L 38.5 16.45
	L 37.5 16.45
	M 38.5 16.45
	L 38 17.32
	L 37 17.32
	L 36.5 16.45
	M 37 17.32
	L 36 17.32
	L 35.5 16.45
	L 36 15.59
	M 35.5 16.45
	L 35 15.59
	M 36 17.32
	L 35 17.32
	L 34.5 16.45
	M 35 17.32
	L 34 17.32
	M 38 17.32
	L 37.5 18.19
	L 36.5 18.19
	M 37.5 18.19
	L 37 19.05
	L 36 19.05
	L 35.5 18.19
	M 36 19.05
	L 35 19.05
	M 37 19.05
	L 36.5 19.92
	L 35.5 19.92
	M 36.5 19.92
	L 36 20.78
	L 35 20.78
	L 34.5 19.92
	M 35 20.78
	L 34 20.78
	L 33.5 19.92
	L 34 19.05
	M 33.5 19.92
	L 33 19.05
	M 34 20.78
	L 33 20.78
	L 32.5 19.92
	M 33 20.78
	L 32 20.78
	L 31.5 19.92
	L 32 19.05
	M 31.5 19.92
	L 31 19.05
	L 31.5 18.19
	L 32.5 18.19
	M 31.5 18.19
	L 32 17.32
	M 31 19.05
	L 30.5 18.19
	L 31 17.32
	M 30.5 18.19
	L 30 17.32
	M 32 20.78
	L 31 20.78
	L 30.5 19.92
	M 31 20.78
	L 30 20.78
	L 29.5 19.92
	L 30 19.05
	M 29.5 19.92
	L 29 19.05
	M 30 20.78
	L 29 20.78
	L 28.5 19.92
	M 29 20.78
	L 28 20.78
	M 36 20.78
	L 35.5 21.65
	L 34.5 21.65
	M 35.5 21.65
	L 35 22.52
	L 34 22.52
	L 33.5 21.65
	M 34 22.52
	L 33 22.52
	M 35 22.52
	L 34.5 23.38
	L 33.5 23.38
	M 34.5 23.38
	L 34 24.25
	L 33 24.25
	L 32.5 23.38
	M 33 24.25
	L 32 24.25
	L 31.5 23.38
	L 32 22.52
	M 31.5 23.38
	L 31 22.52
	M 32 24.25
	L 31 24.25
	L 30.5 23.38
	M 31 24.25
	L 30 24.25
	M 34 24.25
	L 33.5 25.11
	L 32.5 25.11
	M 33.5 25.11
	L 33 25.98
	L 32 25.98
	L 31.5 25.11
	M 32 25.98
	L 31 25.98
	M 33 25.98
	L 32.5 26.85
	L 31.5 26.85
	M 32.5 26.85
	L 32 27.71
	M 40 13.86
	L 40.5 14.72
	L 40 15.59
	M 40.5 14.72
	L 41 15.59
	L 40.5 16.45
	L 39.5 16.45
	M 40.5 16.45
	L 40 17.32
	M 41 15.59
	L 41.5 16.45
	L 41 17.32
	M 41.5 16.45
	L 42 17.32
	L 41.5 18.19
	L 40.5 18.19
	M 41.5 18.19
	L 41 19.05
	L 40 19.05
	L 39.5 18.19
	M 40 19.05
	L 39 19.05
	M 41 19.05
	L 40.5 19.92
	L 39.5 19.92
	M 40.5 19.92
	L 40 20.78
	M 42 17.32
	L 42.5 18.19
	L 42 19.05
	M 42.5 18.19
	L 43 19.05
	L 42.5 19.92
	L 41.5 19.92
	M 42.5 19.92
	L 42 20.78
	M 43 19.05
	L 43.5 19.92
	L 43 20.78
	M 43.5 19.92
	L 44 20.78
	L 43.5 21.65
	L 42.5 21.65
	M 43.5 21.65
	L 43 22.52
	L 42 22.52
	L 41.5 21.65
	M 42 22.52
	L 41 22.52
	M 43 22.52
	L 42.5 23.38
	L 41.5 23.38
	M 42.5 23.38
	L 42 24.25
	L 41 24.25
	L 40.5 23.38
	M 41 24.25
	L 40 24.25
	L 39.5 23.38
	L 40 22.52
	M 39.5 23.38
	L 39 22.52
	M 40 24.25
	L 39 24.25
	L 38.5 23.38
	M 39 24.25
	L 38 24.25
	M 42 24.25
	L 41.5 25.11
	L 40.5 25.11
	M 41.5 25.11
	L 41 25.98
	L 40 25.98
	L 39.5 25.11
	M 40 25.98
	L 39 25.98
	M 41 25.98
	L 40.5 26.85
	L 39.5 26.85
	M 40.5 26.85
	L 40 27.71
	M 44 20.78
	L 44.5 21.65
	L 44 22.52
	M 44.5 21.65
	L 45 22.52
	L 44.5 23.38
	L 43.5 23.38
	M 44.5 23.38
	L 44 24.25
	M 45 22.52
	L 45.5 23.38
	L 45 24.25
	M 45.5 23.38
	L 46 24.25
	L 45.5 25.11
	L 44.5 25.11
	M 45.5 25.11
	L 45 25.98
	L 44 25.98
	L 43.5 25.11
	M 44 25.98
	L 43 25.98
	M 45 25.98
	L 44.5 26.85
	L 43.5 26.85
	M 44.5 26.85
	L 44 27.71
	M 46 24.25
	L 46.5 25.11
	L 46 25.98
	M 46.5 25.11
	L 47 25.98
	L 46.5 26.85
	L 45.5 26.85
	M 46.5 26.85
	L 46 27.71
	M 47 25.98
	L 47.5 26.85
	L 47 27.71
	M 47.5 26.85
	L 48 27.71
	M 32 0
	L 33 0
	L 33.5 0.866
	M 33 0
	L 34 0
	L 34.5 0.866
	L 34 1.732
	M 34.5 0.866
	L 35 1.732
	M 34 0
	L 35 0
	L 35.5 0.866
	M 35 0
	L 36 0
	L 36.5 0.866
	L 36 1.732
	M 36.5 0.866
	L 37 1.732
	L 36.5 2.598
	L 35.5 2.598
	M 36.5 2.598
	L 36 3.464
	M 37 1.732
	L 37.5 2.598
	L 37 3.464
	M 37.5 2.598
	L 38 3.464
	M 36 0
	L 37 0
	L 37.5 0.866
	M 37 0
	L 38 0
	L 38.5 0.866
	L 38 1.732
	M 38.5 0.866
	L 39 1.732
	M 38 0
	L 39 0
	L 39.5 0.866
	M 39 0
	L 40 0
	L 40.5 0.866
	L 40 1.732
	M 40.5 0.866
	L 41 1.732
	L 40.5 2.598
	L 39.5 2.598
	M 40.5 2.598
	L 40 3.464
	M 41 1.732
	L 41.5 2.598
	L 41 3.464
	M 41.5 2.598
	L 42 3.464
	L 41.5 4.33
	L 40.5 4.33
	M 41.5 4.33
	L 41 5.196
	L 40 5.196
	L 39.5 4.33
	M 40 5.196
	L 39 5.196
	M 41 5.196
	L 40.5 6.062
	L 39.5 6.062
	M 40.5 6.062
	L 40 6.928
	M 42 3.464
	L 42.5 4.33
	L 42 5.196
	M 42.5 4.33
	L 43 5.196
	L 42.5 6.062
	L 41.5 6.062
	M 42.5 6.062
	L 42 6.928
	M 43 5.196
	L 43.5 6.062
	L 43 6.928
	M 43.5 6.062
	L 44 6.928
	M 40 0
	L 41 0
	L 41.5 0.866
	M 41 0
	L 42 0
	L 42.5 0.866
	L 42 1.732
	M 42.5 0.866
	L 43 1.732
	M 42 0
	L 43 0
	L 43.5 0.866
	M 43 0
	L 44 0
	L 44.5 0.866
	L 44 1.732
	M 44.5 0.866
	L 45 1.732
	L 44.5 2.598
	L 43.5 2.598
	M 44.5 2.598
	L 44 3.464
	M 45 1.732
	L 45.5 2.598
	L 45 3.464
	M 45.5 2.598
	L 46 3.464
	M 44 0
	L 45 0
	L 45.5 0.866
	M 45 0
	L 46 0
	L 46.5 0.866
	L 46 1.732
	M 46.5 0.866
	L 47 1.732
	M 46 0
	L 47 0
	L 47.5 0.866
	M 47 0
	L 48 0
	L 48.5 0.866
	L 48 1.732
	M 48.5 0.866
	L 49 1.732
	L 48.5 2.598
	L 47.5 2.598
	M 48.5 2.598
	L 48 3.464
	M 49 1.732
	L 49.5 2.598
	L 49 3.464
	M 49.5 2.598
	L 50 3.464
	L 49.5 4.33
	L 48.5 4.33
	M 49.5 4.33
	L 49 5.196
	L 48 5.196
	L 47.5 4.33
	M 48 5.196
	L 47 5.196
	M 49 5.196
	L 48.5 6.062
	L 47.5 6.062
	M 48.5 6.062
	L 48 6.928
	M 50 3.464
	L 50.5 4.33
	L 50 5.196
	M 50.5 4.33
	L 51 5.196
	L 50.5 6.062
	L 49.5 6.062
	M 50.5 6.062
	L 50 6.928
	M 51 5.196
	L 51.5 6.062
	L 51 6.928
	M 51.5 6.062
	L 52 6.928
	L 51.5 7.794
	L 50.5 7.794
	M 51.5 7.794
	L 51 8.66
	L 50 8.66
	L 49.5 7.794
	M 50 8.66
	L 49 8.66
	M 51 8.66
	L 50.5 9.526
	L 49.5 9.526
	M 50.5 9.526
	L 50 10.39
	L 49 10.39
	L 48.5 9.526
	M 49 10.39
	L 48 10.39
	L 47.5 9.526
	L 48 8.66
	M 47.5 9.526
	L 47 8.66
	M 48 10.39
	L 47 10.39
	L 46.5 9.526
	M 47 10.39
	L 46 10.39
	M 50 10.39
	L 49.5 11.26
	L 48.5 11.26
	M 49.5 11.26
	L 49 12.12
	L 48 12.12
	L 47.5 11.26
	M 48 12.12
	L 47 12.12
	M 49 12.12
	L 48.5 12.99
	L 47.5 12.99
	M 48.5 12.99
	L 48 13.86
	M 52 6.928
	L 52.5 7.794
	L 52 8.66
	M 52.5 7.794
	L 53 8.66
	L 52.5 9.526
	L 51.5 9.526
	M 52.5 9.526
	L 52 10.39
	M 53 8.66
	L 53.5 9.526
	L 53 10.39
	M 53.5 9.526
	L 54 10.39
	L 53.5 11.26
	L 52.5 11.26
	M 53.5 11.26
	L 53 12.12
	L 52 12.12
	L 51.5 11.26
	M 52 12.12
	L 51 12.12
	M 53 12.12
	L 52.5 12.99
	L 51.5 12.99
	M 52.5 12.99
	L 52 13.86
	M 54 10.39
	L 54.5 11.26
	L 54 12.12
	M 54.5 11.26
	L 55 12.12
	L 54.5 12.99
	L 53.5 12.99
	M 54.5 12.99
	L 54 13.86
	M 55 12.12
	L 55.5 12.99
	L 55 13.86
	M 55.5 12.99
	L 56 13.86
	M 48 0
	L 49 0
	L 49.5 0.866
	M 49 0
	L 50 0
	L 50.5 0.866
	L 50 1.732
	M 50.5 0.866
	L 51 1.732
	M 50 0
	L 51 0
	L 51.5 0.866
	M 51 0
	L 52 0
	L 52.5 0.866
	L 52 1.732
	M 52.5 0.866
	L 53 1.732
	L 52.5 2.598
	L 51.5 2.598
	M 52.5 2.598
	L 52 3.464
	M 53 1.732
	L 53.5 2.598
	L 53 3.464
	M 53.5 2.598
	L 54 3.464
	M 52 0
	L 53 0
	L 53.5 0.866
	M 53 0
	L 54 0
	L 54.5 0.866
	L 54 1.732
	M 54.5 0.866
	L 55 1.732
	M 54 0
	L 55 0
	L 55.5 0.866
	M 55 0
	L 56 0
	L 56.5 0.866
	L 56 1.732
	M 56.5 0.866
	L 57 1.732
	L 56.5 2.598
	L 55.5 2.598
	M 56.5 2.598
	L 56 3.464
	M 57 1.732
	L 57.5 2.598
	L 57 3.464
	M 57.5 2.598
	L 58 3.464
	L 57.5 4.33
	L 56.5 4.33
	M 57.5 4.33
	L 57 5.196
	L 56 5.196
	L 55.5 4.33
	M 56 5.196
	L 55 5.196
	M 57 5.196
	L 56.5 6.062
	L 55.5 6.062
	M 56.5 6.062
	L 56 6.928
	M 58 3.464
	L 58.5 4.33
	L 58 5.196
	M 58.5 4.33
	L 59 5.196
	L 58.5 6.062
	L 57.5 6.062
	M 58.5 6.062
	L 58 6.928
	M 59 5.196
	L 59.5 6.062
	L 59 6.928
	M 59.5 6.062
	L 60 6.928
	M 56 0
	L 57 0
	L 57.5 0.866
	M 57 0
	L 58 0
	L 58.5 0.866
	L 58 1.732
	M 58.5 0.866
	L 59 1.732
	M 58 0
	L 59 0
	L 59.5 0.866
	M 59 0
	L 60 0
	L 60.5 0.866
	L 60 1.732
	M 60.5 0.866
	L 61 1.732
	L 60.5 2.598
	L 59.5 2.598
	M 60.5 2.598
	L 60 3.464
	M 61 1.732
	L 61.5 2.598
	L 61 3.464
	M 61.5 2.598
	L 62 3.464
	M 60 0
	L 61 0
	L 61.5 0.866
	M 61 0
	L 62 0
	L 62.5 0.866
	L 62 1.732
	M 62.5 0.866
	L 63 1.732
	M 62 0
	L 63 0
	L 63.5 0.866
	M 63 0
	L 64 0
	L 64.5 0.866
	L 64 1.732
	M 64.5 0.866
	L 65 1.732
	L 64.5 2.598
	L 63.5 2.598
	M 64.5 2.598
	L 64 3.464
	M 65 1.732
	L 65.5 2.598
	L 65 3.464
	M 65.5 2.598
	L 66 3.464
	L 65.5 4.33
	L 64.5 4.33
	M 65.5 4.33
	L 65 5.196
	L 64 5.196
	L 63.5 4.33
	M 64 5.196
	L 63 5.196
	M 65 5.196
	L 64.5 6.062
	L 63.5 6.062
	M 64.5 6.062
	L 64 6.928
	M 66 3.464
	L 66.5 4.33
	L 66 5.196
	M 66.5 4.33
	L 67 5.196
	L 66.5 6.062
	L 65.5 6.062
	M 66.5 6.062
	L 66 6.928
	M 67 5.196
	L 67.5 6.062
	L 67 6.928
	M 67.5 6.062
	L 68 6.928
	L 67.5 7.794
	L 66.5 7.794
	M 67.5 7.794
	L 67 8.66
	L 66 8.66
	L 65.5 7.794
	M 66 8.66
	L 65 8.66
	M 67 8.66
	L 66.5 9.526
	L 65.5 9.526
	M 66.5 9.526
	L 66 10.39
	L 65 10.39
	L 64.5 9.526
	M 65 10.39
	L 64 10.39
	L 63.5 9.526
	L 64 8.66
	M 63.5 9.526
	L 63 8.66
	M 64 10.39
	L 63 10.39
	L 62.5 9.526
	M 63 10.39
	L 62 10.39
	M 66 10.39
	L 65.5 11.26
	L 64.5 11.26
	M 65.5 11.26
	L 65 12.12
	L 64 12.12
	L 63.5 11.26
	M 64 12.12
	L 63 12.12
	M 65 12.12
	L 64.5 12.99
	L 63.5 12.99
	M 64.5 12.99
	L 64 13.86
	M 68 6.928
	L 68.5 7.794
	L 68 8.66
	M 68.5 7.794
	L 69 8.66
	L 68.5 9.526
	L 67.5 9.526
	M 68.5 9.526
	L 68 10.39
	M 69 8.66
	L 69.5 9.526
	L 69 10.39
	M 69.5 9.526
	L 70 10.39
	L 69.5 11.26
	L 68.5 11.26
	M 69.5 11.26
	L 69 12.12
	L 68 12.12
	L 67.5 11.26
	M 68 12.12
	L 67 12.12
	M 69 12.12
	L 68.5 12.99
	L 67.5 12.99
	M 68.5 12.99
	L 68 13.86
	M 70 10.39
	L 70.5 11.26
	L 70 12.12
	M 70.5 11.26
	L 71 12.12
	L 70.5 12.99
	L 69.5 12.99
	M 70.5 12.99
	L 70 13.86
	M 71 12.12
	L 71.5 12.99
	L 71 13.86
	M 71.5 12.99
	L 72 13.86
	L 71.5 14.72
	L 70.5 14.72
	M 71.5 14.72
	L 71 15.59
	L 70 15.59
	L 69.5 14.72
	M 70 15.59
	L 69 15.59
	M 71 15.59
	L 70.5 16.45
	L 69.5 16.45
	M 70.5 16.45
	L 70 17.32
	L 69 17.32
	L 68.5 16.45
	M 69 17.32
	L 68 17.32
	L 67.5 16.45
	L 68 15.59
	M 67.5 16.45
	L 67 15.59
	M 68 17.32
	L 67 17.32
	L 66.5 16.45
	M 67 17.32
	L 66 17.32
	M 70 17.32
	L 69.5 18.19
	L 68.5 18.19
	M 69.5 18.19
	L 69 19.05
	L 68 19.05
	L 67.5 18.19
	M 68 19.05
	L 67 19.05
	M 69 19.05
	L 68.5 19.92
	L 67.5 19.92
	M 68.5 19.92
	L 68 20.78
	L 67 20.78
	L 66.5 19.92
	M 67 20.78
	L 66 20.78
	L 65.5 19.92
	L 66 19.05
	M 65.5 19.92
	L 65 19.05
	M 66 20.78
	L 65 20.78
	L 64.5 19.92
	M 65 20.78
	L 64 20.78
	L 63.5 19.92
	L 64 19.05
	M 63.5 19.92
	L 63 19.05
	L 63.5 18.19
	L 64.5 18.19
	M 63.5 18.19
	L 64 17.32
	M 63 19.05
	L 62.5 18.19
	L 63 17.32
	M 62.5 18.19
	L 62 17.32
	M 64 20.78
	L 63 20.78
	L 62.5 19.92
	M 63 20.78
	L 62 20.78
	L 61.5 19.92
	L 62 19.05
	M 61.5 19.92
	L 61 19.05
	M 62 20.78
	L 61 20.78
	L 60.5 19.92
	M 61 20.78
	L 60 20.78
	M 68 20.78
	L 67.5 21.65
	L 66.5 21.65
	M 67.5 21.65
	L 67 22.52
	L 66 22.52
	L 65.5 21.65
	M 66 22.52
	L 65 22.52
	M 67 22.52
	L 66.5 23.38
	L 65.5 23.38
	M 66.5 23.38
	L 66 24.25
	L 65 24.25
	L 64.5 23.38
	M 65 24.25
	L 64 24.25
	L 63.5 23.38
	L 64 22.52
	M 63.5 23.38
	L 63 22.52
	M 64 24.25
	L 63 24.25
	L 62.5 23.38
	M 63 24.25
	L 62 24.25
	M 66 24.25
	L 65.5 25.11
	L 64.5 25.11
	M 65.5 25.11
	L 65 25.98
	L 64 25.98
	L 63.5 25.11
	M 64 25.98
	L 63 25.98
	M 65 25.98
	L 64.5 26.85
	L 63.5 26.85
	M 64.5 26.85
	L 64 27.71
	M 72 13.86
	L 72.5 14.72
	L 72 15.59
	M 72.5 14.72
	L 73 15.59
	L 72.5 16.45
	L 71.5 16.45
	M 72.5 16.45
	L 72 17.32
	M 73 15.59
	L 73.5 16.45
	L 73 17.32
	M 73.5 16.45
	L 74 17.32
	L 73.5 18.19
	L 72.5 18.19
	M 73.5 18.19
	L 73 19.05
	L 72 19.05
	L 71.5 18.19
	M 72 19.05
	L 71 19.05
	M 73 19.05
	L 72.5 19.92
	L 71.5 19.92
	M 72.5 19.92
	L 72 20.78
	M 74 17.32
	L 74.5 18.19
	L 74 19.05
	M 74.5 18.19
	L 75 19.05
	L 74.5 19.92
	L 73.5 19.92
	M 74.5 19.92
	L 74 20.78
	M 75 19.05
	L 75.5 19.92
	L 75 20.78
	M 75.5 19.92
	L 76 20.78
	L 75.5 21.65
	L 74.5 21.65
	M 75.5 21.65
	L 75 22.52
	L 74 22.52
	L 73.5 21.65
	M 74 22.52
	L 73 22.52
	M 75 22.52
	L 74.5 23.38
	L 73.5 23.38
	M 74.5 23.38
	L 74 24.25
	L 73 24.25
	L 72.5 23.38
	M 73 24.25
	L 72 24.25
	L 71.5 23.38
	L 72 22.52
	M 71.5 23.38
	L 71 22.52
	M 72 24.25
	L 71 24.25
	L 70.5 23.38
	M 71 24.25
	L 70 24.25
	M 74 24.25
	L 73.5 25.11
	L 72.5 25.11
	M 73.5 25.11
	L 73 25.98
	L 72 25.98
	L 71.5 25.11
	M 72 25.98
	L 71 25.98
	M 73 25.98
	L 72.5 26.85
	L 71.5 26.85
	M 72.5 26.85
	L 72 27.71
	M 76 20.78
	L 76.5 21.65
	L 76 22.52
	M 76.5 21.65
	L 77 22.52
	L 76.5 23.38
	L 75.5 23.38
	M 76.5 23.38
	L 76 24.25
	M 77 22.52
	L 77.5 23.38
	L 77 24.25
	M 77.5 23.38
	L 78 24.25
	L 77.5 25.11
	L 76.5 25.11
	M 77.5 25.11
	L 77 25.98
	L 76 25.98
	L 75.5 25.11
	M 76 25.98
	L 75 25.98
	M 77 25.98
	L 76.5 26.85
	L 75.5 26.85
	M 76.5 26.85
	L 76 27.71
	M 78 24.25
	L 78.5 25.11
	L 78 25.98
	M 78.5 25.11
	L 79 25.98
	L 78.5 26.85
	L 77.5 26.85
	M 78.5 26.85
	L 78 27.71
	M 79 25.98
	L 79.5 26.85
	L 79 27.71
	M 79.5 26.85
	L 80 27.71
	L 79.5 28.58
	L 78.5 28.58
	M 79.5 28.58
	L 79 29.44
	L 78 29.44
	L 77.5 28.58
	M 78 29.44
	L 77 29.44
	M 79 29.44
	L 78.5 30.31
	L 77.5 30.31
	M 78.5 30.31
	L 78 31.18
	L 77 31.18
	L 76.5 30.31
	M 77 31.18
	L 76 31.18
	L 75.5 30.31
	L 76 29.44
	M 75.5 30.31
	L 75 29.44
	M 76 31.18
	L 75 31.18
	L 74.5 30.31
	M 75 31.18
	L 74 31.18
	M 78 31.18
	L 77.5 32.04
	L 76.5 32.04
	M 77.5 32.04
	L 77 32.91
	L 76 32.91
	L 75.5 32.04
	M 76 32.91
	L 75 32.91
	M 77 32.91
	L 76.5 33.77
	L 75.5 33.77
	M 76.5 33.77
	L 76 34.64
	L 75 34.64
	L 74.5 33.77
	M 75 34.64
	L 74 34.64
	L 73.5 33.77
	L 74 32.91
	M 73.5 33.77
	L 73 32.91
	M 74 34.64
	L 73 34.64
	L 72.5 33.77
	M 73 34.64
	L 72 34.64
	L 71.5 33.77
	L 72 32.91
	M 71.5 33.77
	L 71 32.91
	L 71.5 32.04
	L 72.5 32.04
	M 71.5 32.04
	L 72 31.18
	M 71 32.91
	L 70.5 32.04
	L 71 31.18
	M 70.5 32.04
	L 70 31.18
	M 72 34.64
	L 71 34.64
	L 70.5 33.77
	M 71 34.64
	L 70 34.64
	L 69.5 33.77
	L 70 32.91
	M 69.5 33.77
	L 69 32.91
	M 70 34.64
	L 69 34.64
	L 68.5 33.77
	M 69 34.64
	L 68 34.64
	M 76 34.64
	L 75.5 35.51
	L 74.5 35.51
	M 75.5 35.51
	L 75 36.37
	L 74 36.37
	L 73.5 35.51
	M 74 36.37
	L 73 36.37
	M 75 36.37
	L 74.5 37.24
	L 73.5 37.24
	M 74.5 37.24
	L 74 38.11
	L 73 38.11
	L 72.5 37.24
	M 73 38.11
	L 72 38.11
	L 71.5 37.24
	L 72 36.37
	M 71.5 37.24
	L 71 36.37
	M 72 38.11
	L 71 38.11
	L 70.5 37.24
	M 71 38.11
	L 70 38.11
	M 74 38.11
	L 73.5 38.97
	L 72.5 38.97
	M 73.5 38.97
	L 73 39.84
	L 72 39.84
	L 71.5 38.97
	M 72 39.84
	L 71 39.84
	M 73 39.84
	L 72.5 40.7
	L 71.5 40.7
	M 72.5 40.7
	L 72 41.57
	L 71 41.57
	L 70.5 40.7
	M 71 41.57
	L 70 41.57
	L 69.5 40.7
	L 70 39.84
	M 69.5 40.7
	L 69 39.84
	M 70 41.57
	L 69 41.57
	L 68.5 40.7
	M 69 41.57
	L 68 41.57
	L 67.5 40.7
	L 68 39.84
	M 67.5 40.7
	L 67 39.84
	L 67.5 38.97
	L 68.5 38.97
	M 67.5 38.97
	L 68 38.11
	M 67 39.84
	L 66.5 38.97
	L 67 38.11
	M 66.5 38.97
	L 66 38.11
	M 68 41.57
	L 67 41.57
	L 66.5 40.7
	M 67 41.57
	L 66 41.57
	L 65.5 40.7
	L 66 39.84
	M 65.5 40.7
	L 65 39.84
	M 66 41.57
	L 65 41.57
	L 64.5 40.7
	M 65 41.57
	L 64 41.57
	L 63.5 40.7
	L 64 39.84
	M 63.5 40.7
	L 63 39.84
	L 63.5 38.97
	L 64.5 38.97
	M 63.5 38.97
	L 64 38.11
	M 63 39.84
	L 62.5 38.97
	L 63 38.11
	M 62.5 38.97
	L 62 38.11
	L 62.5 37.24
	L 63.5 37.24
	M 62.5 37.24
	L 63 36.37
	L 64 36.37
	L 64.5 37.24
	M 64 36.37
	L 65 36.37
	M 63 36.37
	L 63.5 35.51
	L 64.5 35.51
	M 63.5 35.51
	L 64 34.64
	M 62 38.11
	L 61.5 37.24
	L 62 36.37
	M 61.5 37.24
	L 61 36.37
	L 61.5 35.51
	L 62.5 35.51
	M 61.5 35.51
	L 62 34.64
	M 61 36.37
	L 60.5 35.51
	L 61 34.64
	M 60.5 35.51
	L 60 34.64
	M 64 41.57
	L 63 41.57
	L 62.5 40.7
	M 63 41.57
	L 62 41.57
	L 61.5 40.7
	L 62 39.84
	M 61.5 40.7
	L 61 39.84
	M 62 41.57
	L 61 41.57
	L 60.5 40.7
	M 61 41.57
	L 60 41.57
	L 59.5 40.7
	L 60 39.84
	M 59.5 40.7
	L 59 39.84
	L 59.5 38.97
	L 60.5 38.97
	M 59.5 38.97
	L 60 38.11
	M 59 39.84
	L 58.5 38.97
	L 59 38.11
	M 58.5 38.97
	L 58 38.11
	M 60 41.57
	L 59 41.57
	L 58.5 40.7
	M 59 41.57
	L 58 41.57
	L 57.5 40.7
	L 58 39.84
	M 57.5 40.7
	L 57 39.84
	M 58 41.57
	L 57 41.57
	L 56.5 40.7
	M 57 41.57
	L 56 41.57
	M 72 41.57
	L 71.5 42.44
	L 70.5 42.44
	M 71.5 42.44
	L 71 43.3
	L 70 43.3
	L 69.5 42.44
	M 70 43.3
	L 69 43.3
	M 71 43.3
	L 70.5 44.17
	L 69.5 44.17
	M 70.5 44.17
	L 70 45.03
	L 69 45.03
	L 68.5 44.17
	M 69 45.03
	L 68 45.03
	L 67.5 44.17
	L 68 43.3
	M 67.5 44.17
	L 67 43.3
	M 68 45.03
	L 67 45.03
	L 66.5 44.17
	M 67 45.03
	L 66 45.03
	M 70 45.03
	L 69.5 45.9
	L 68.5 45.9
	M 69.5 45.9
	L 69 46.77
	L 68 46.77
	L 67.5 45.9
	M 68 46.77
	L 67 46.77
	M 69 46.77
	L 68.5 47.63
	L 67.5 47.63
	M 68.5 47.63
	L 68 48.5
	L 67 48.5
	L 66.5 47.63
	M 67 48.5
	L 66 48.5
	L 65.5 47.63
	L 66 46.77
	M 65.5 47.63
	L 65 46.77
	M 66 48.5
	L 65 48.5
	L 64.5 47.63
	M 65 48.5
	L 64 48.5
	L 63.5 47.63
	L 64 46.77
	M 63.5 47.63
	L 63 46.77
	L 63.5 45.9
	L 64.5 45.9
	M 63.5 45.9
	L 64 45.03
	M 63 46.77
	L 62.5 45.9
	L 63 45.03
	M 62.5 45.9
	L 62 45.03
	M 64 48.5
	L 63 48.5
	L 62.5 47.63
	M 63 48.5
	L 62 48.5
	L 61.5 47.63
	L 62 46.77
	M 61.5 47.63
	L 61 46.77
	M 62 48.5
	L 61 48.5
	L 60.5 47.63
	M 61 48.5
	L 60 48.5
	M 68 48.5
	L 67.5 49.36
	L 66.5 49.36
	M 67.5 49.36
	L 67 50.23
	L 66 50.23
	L 65.5 49.36
	M 66 50.23
	L 65 50.23
	M 67 50.23
	L 66.5 51.1
	L 65.5 51.1
	M 66.5 51.1
	L 66 51.96
	L 65 51.96
	L 64.5 51.1
	M 65 51.96
	L 64 51.96
	L 63.5 51.1
	L 64 50.23
	M 63.5 51.1
	L 63 50.23
	M 64 51.96
	L 63 51.96
	L 62.5 51.1
	M 63 51.96
	L 62 51.96
	M 66 51.96
	L 65.5 52.83
	L 64.5 52.83
	M 65.5 52.83
	L 65 53.69
	L 64 53.69
	L 63.5 52.83
	M 64 53.69
	L 63 53.69
	M 65 53.69
	L 64.5 54.56
	L 63.5 54.56
	M 64.5 54.56
	L 64 55.43
	M 80 27.71
	L 80.5 28.58
	L 80 29.44
	M 80.5 28.58
	L 81 29.44
	L 80.5 30.31
	L 79.5 30.31
	M 80.5 30.31
	L 80 31.18
	M 81 29.44
	L 81.5 30.31
	L 81 31.18
	M 81.5 30.31
	L 82 31.18
	L 81.5 32.04
	L 80.5 32.04
	M 81.5 32.04
	L 81 32.91
	L 80 32.91
	L 79.5 32.04
	M 80 32.91
	L 79 32.91
	M 81 32.91
	L 80.5 33.77
	L 79.5 33.77
	M 80.5 33.77
	L 80 34.64
	M 82 31.18
	L 82.5 32.04
	L 82 32.91
	M 82.5 32.04
	L 83 32.91
	L 82.5 33.77
	L 81.5 33.77
	M 82.5 33.77
	L 82 34.64
	M 83 32.91
	L 83.5 33.77
	L 83 34.64
	M 83.5 33.77
	L 84 34.64
	L 83.5 35.51
	L 82.5 35.51
	M 83.5 35.51
	L 83 36.37
	L 82 36.37
	L 81.5 35.51
	M 82 36.37
	L 81 36.37
	M 83 36.37
	L 82.5 37.24
	L 81.5 37.24
	M 82.5 37.24
	L 82 38.11
	L 81 38.11
	L 80.5 37.24
	M 81 38.11
	L 80 38.11
	L 79.5 37.24
	L 80 36.37
	M 79.5 37.24
	L 79 36.37
	M 80 38.11
	L 79 38.11
	L 78.5 37.24
	M 79 38.11
	L 78 38.11
	M 82 38.11
	L 81.5 38.97
	L 80.5 38.97
	M 81.5 38.97
	L 81 39.84
	L 80 39.84
	L 79.5 38.97
	M 80 39.84
	L 79 39.84
	M 81 39.84
	L 80.5 40.7
	L 79.5 40.7
	M 80.5 40.7
	L 80 41.57
	M 84 34.64
	L 84.5 35.51
	L 84 36.37
	M 84.5 35.51
	L 85 36.37
	L 84.5 37.24
	L 83.5 37.24
	M 84.5 37.24
	L 84 38.11
	M 85 36.37
	L 85.5 37.24
	L 85 38.11
	M 85.5 37.24
	L 86 38.11
	L 85.5 38.97
	L 84.5 38.97
	M 85.5 38.97
	L 85 39.84
	L 84 39.84
	L 83.5 38.97
	M 84 39.84
	L 83 39.84
	M 85 39.84
	L 84.5 40.7
	L 83.5 40.7
	M 84.5 40.7
	L 84 41.57
	M 86 38.11
	L 86.5 38.97
	L 86 39.84
	M 86.5 38.97
	L 87 39.84
	L 86.5 40.7
	L 85.5 40.7
	M 86.5 40.7
	L 86 41.57
	M 87 39.84
	L 87.5 40.7
	L 87 41.57
	M 87.5 40.7
	L 88 41.57
	L 87.5 42.44
	L 86.5 42.44
	M 87.5 42.44
	L 87 43.3
	L 86 43.3
	L 85.5 42.44
	M 86 43.3
	L 85 43.3
	M 87 43.3
	L 86.5 44.17
	L 85.5 44.17
	M 86.5 44.17
	L 86 45.03
	L 85 45.03
	L 84.5 44.17
	M 85 45.03
	L 84 45.03
	L 83.5 44.17
	L 84 43.3
	M 83.5 44.17
	L 83 43.3
	M 84 45.03
	L 83 45.03
	L 82.5 44.17
	M 83 45.03
	L 82 45.03
	M 86 45.03
	L 85.5 45.9
	L 84.5 45.9
	M 85.5 45.9
	L 85 46.77
	L 84 46.77
	L 83.5 45.9
	M 84 46.77
	L 83 46.77
	M 85 46.77
	L 84.5 47.63
	L 83.5 47.63
	M 84.5 47.63
	L 84 48.5
	L 83 48.5
	L 82.5 47.63
	M 83 48.5
	L 82 48.5
	L 81.5 47.63
	L 82 46.77
	M 81.5 47.63
	L 81 46.77
	M 82 48.5
	L 81 48.5
	L 80.5 47.63
	M 81 48.5
	L 80 48.5
	L 79.5 47.63
	L 80 46.77
	M 79.5 47.63
	L 79 46.77
	L 79.5 45.9
	L 80.5 45.9
	M 79.5 45.9
	L 80 45.03
	M 79 46.77
	L 78.5 45.9
	L 79 45.03
	M 78.5 45.9
	L 78 45.03
	M 80 48.5
	L 79 48.5
	L 78.5 47.63
	M 79 48.5
	L 78 48.5
	L 77.5 47.63
	L 78 46.77
	M 77.5 47.63
	L 77 46.77
	M 78 48.5
	L 77 48.5
	L 76.5 47.63
	M 77 48.5
	L 76 48.5
	M 84 48.5
	L 83.5 49.36
	L 82.5 49.36
	M 83.5 49.36
	L 83 50.23
	L 82 50.23
	L 81.5 49.36
	M 82 50.23
	L 81 50.23
	M 83 50.23
	L 82.5 51.1
	L 81.5 51.1
	M 82.5 51.1
	L 82 51.96
	L 81 51.96
	L 80.5 51.1
	M 81 51.96
	L 80 51.96
	L 79.5 51.1
	L 80 50.23
	M 79.5 51.1
	L 79 50.23
	M 80 51.96
	L 79 51.96
	L 78.5 51.1
	M 79 51.96
	L 78 51.96
	M 82 51.96
	L 81.5 52.83
	L 80.5 52.83
	M 81.5 52.83
	L 81 53.69
	L 80 53.69
	L 79.5 52.83
	M 80 53.69
	L 79 53.69
	M 81 53.69
	L 80.5 54.56
	L 79.5 54.56
	M 80.5 54.56
	L 80 55.43
	M 88 41.57
	L 88.5 42.44
	L 88 43.3
	M 88.5 42.44
	L 89 43.3
	L 88.5 44.17
	L 87.5 44.17
	M 88.5 44.17
	L 88 45.03
	M 89 43.3
	L 89.5 44.17
	L 89 45.03
	M 89.5 44.17
	L 90 45.03
	L 89.5 45.9
	L 88.5 45.9
	M 89.5 45.9
	L 89 46.77
	L 88 46.77
	L 87.5 45.9
	M 88 46.77
	L 87 46.77
	M 89 46.77
	L 88.5 47.63
	L 87.5 47.63
	M 88.5 47.63
	L 88 48.5
	M 90 45.03
	L 90.5 45.9
	L 90 46.77
	M 90.5 45.9
	L 91 46.77
	L 90.5 47.63
	L 89.5 47.63
	M 90.5 47.63
	L 90 48.5
	M 91 46.77
	L 91.5 47.63
	L 91 48.5
	M 91.5 47.63
	L 92 48.5
	L 91.5 49.36
	L 90.5 49.36
	M 91.5 49.36
	L 91 50.23
	L 90 50.23
	L 89.5 49.36
	M 90 50.23
	L 89 50.23
	M 91 50.23
	L 90.5 51.1
	L 89.5 51.1
	M 90.5 51.1
	L 90 51.96
	L 89 51.96
	L 88.5 51.1
	M 89 51.96
	L 88 51.96
	L 87.5 51.1
	L 88 50.23
	M 87.5 51.1
	L 87 50.23
	M 88 51.96
	L 87 51.96
	L 86.5 51.1
	M 87 51.96
	L 86 51.96
	M 90 51.96
	L 89.5 52.83
	L 88.5 52.83
	M 89.5 52.83
	L 89 53.69
	L 88 53.69
	L 87.5 52.83
	M 88 53.69
	L 87 53.69
	M 89 53.69
	L 88.5 54.56
	L 87.5 54.56
	M 88.5 54.56
	L 88 55.43
	M 92 48.5
	L 92.5 49.36
	L 92 50.23
	M 92.5 49.36
	L 93 50.23
	L 92.5 51.1
	L 91.5 51.1
	M 92.5 51.1
	L 92 51.96
	M 93 50.23
	L 93.5 51.1
	L 93 51.96
	M 93.5 51.1
	L 94 51.96
	L 93.5 52.83
	L 92.5 52.83
	M 93.5 52.83
	L 93 53.69
	L 92 53.69
	L 91.5 52.83
	M 92 53.69
	L 91 53.69
	M 93 53.69
	L 92.5 54.56
	L 91.5 54.56
	M 92.5 54.56
	L 92 55.43
	M 94 51.96
	L 94.5 52.83
	L 94 53.69
	M 94.5 52.83
	L 95 53.69
	L 94.5 54.56
	L 93.5 54.56
	M 94.5 54.56
	L 94 55.43
	M 95 53.69
	L 95.5 54.56
	L 95 55.43
	M 95.5 54.56
	L 96 55.43
	M 64 0
	L 65 0
	L 65.5 0.866
	M 65 0
	L 66 0
	L 66.5 0.866
	L 66 1.732
	M 66.5 0.866
	L 67 1.732
	M 66 0
	L 67 0
	L 67.5 0.866
	M 67 0
	L 68 0
	L 68.5 0.866
	L 68 1.732
	M 68.5 0.866
	L 69 1.732
	L 68.5 2.598
	L 67.5 2.598
	M 68.5 2.598
	L 68 3.464
	M 69 1.732
	L 69.5 2.598
	L 69 3.464
	M 69.5 2.598
	L 70 3.464
	M 68 0
	L 69 0
	L 69.5 0.866
	M 69 0
	L 70 0
	L 70.5 0.866
	L 70 1.732
	M 70.5 0.866
	L 71 1.732
	M 70 0
	L 71 0
	L 71.5 0.866
	M 71 0
	L 72 0
	L 72.5 0.866
	L 72 1.732
	M 72.5 0.866
	L 73 1.732
	L 72.5 2.598
	L 71.5 2.598
	M 72.5 2.598
	L 72 3.464
	M 73 1.732
	L 73.5 2.598
	L 73 3.464
	M 73.5 2.598
	L 74 3.464
	L 73.5 4.33
	L 72.5 4.33
	M 73.5 4.33
	L 73 5.196
	L 72 5.196
	L 71.5 4.33
	M 72 5.196
	L 71 5.196
	M 73 5.196
	L 72.5 6.062
	L 71.5 6.062
	M 72.5 6.062
	L 72 6.928
	M 74 3.464
	L 74.5 4.33
	L 74 5.196
	M 74.5 4.33
	L 75 5.196
	L 74.5 6.062
	L 73.5 6.062
	M 74.5 6.062
	L 74 6.928
	M 75 5.196
	L 75.5 6.062
	L 75 6.928
	M 75.5 6.062
	L 76 6.928
	M 72 0
	L 73 0
	L 73.5 0.866
	M 73 0
	L 74 0
	L 74.5 0.866
	L 74 1.732
	M 74.5 0.866
	L 75 1.732
	M 74 0
	L 75 0
	L 75.5 0.866
	M 75 0
	L 76 0
	L 76.5 0.866
	L 76 1.732
	M 76.5 0.866
	L 77 1.732
	L 76.5 2.598
	L 75.5 2.598
	M 76.5 2.598
	L 76 3.464
	M 77 1.732
	L 77.5 2.598
	L 77 3.464
	M 77.5 2.598
	L 78 3.464
	M 76 0
	L 77 0
	L 77.5 0.866
	M 77 0
	L 78 0
	L 78.5 0.866
	L 78 1.732
	M 78.5 0.866
	L 79 1.732
	M 78 0
	L 79 0
	L 79.5 0.866
	M 79 0
	L 80 0
	L 80.5 0.866
	L 80 1.732
	M 80.5 0.866
	L 81 1.732
	L 80.5 2.598
	L 79.5 2.598
	M 80.5 2.598
	L 80 3.464
	M 81 1.732
	L 81.5 2.598
	L 81 3.464
	M 81.5 2.598
	L 82 3.464
	L 81.5 4.33
	L 80.5 4.33
	M 81.5 4.33
	L 81 5.196
	L 80 5.196
	L 79.5 4.33
	M 80 5.196
	L 79 5.196
	M 81 5.196
	L 80.5 6.062
	L 79.5 6.062
	M 80.5 6.062
	L 80 6.928
	M 82 3.464
	L 82.5 4.33
	L 82 5.196
	M 82.5 4.33
	L 83 5.196
	L 82.5 6.062
	L 81.5 6.062
	M 82.5 6.062
	L 82 6.928
	M 83 5.196
	L 83.5 6.062
	L 83 6.928
	M 83.5 6.062
	L 84 6.928
	L 83.5 7.794
	L 82.5 7.794
	M 83.5 7.794
	L 83 8.66
	L 82 8.66
	L 81.5 7.794
	M 82 8.66
	L 81 8.66
	M 83 8.66
	L 82.5 9.526
	L 81.5 9.526
	M 82.5 9.526
	L 82 10.39
	L 81 10.39
	L 80.5 9.526
	M 81 10.39
	L 80 10.39
	L 79.5 9.526
	L 80 8.66
	M 79.5 9.526
	L 79 8.66
	M 80 10.39
	L 79 10.39
	L 78.5 9.526
	M 79 10.39
	L 78 10.39
	M 82 10.39
	L 81.5 11.26
	L 80.5 11.26
	M 81.5 11.26
	L 81 12.12
	L 80 12.12
	L 79.5 11.26
	M 80 12.12
	L 79 12.12
	M 81 12.12
	L 80.5 12.99
	L 79.5 12.99
	M 80.5 12.99
	L 80 13.86
	M 84 6.928
	L 84.5 7.794
	L 84 8.66
	M 84.5 7.794
	L 85 8.66
	L 84.5 9.526
	L 83.5 9.526
	M 84.5 9.526
	L 84 10.39
	M 85 8.66
	L 85.5 9.526
	L 85 10.39
	M 85.5 9.526
	L 86 10.39
	L 85.5 11.26
	L 84.5 11.26
	M 85.5 11.26
	L 85 12.12
	L 84 12.12
	L 83.5 11.26
	M 84 12.12
	L 83 12.12
	M 85 12.12
	L 84.5 12.99
	L 83.5 12.99
	M 84.5 12.99
	L 84 13.86
	M 86 10.39
	L 86.5 11.26
	L 86 12.12
	M 86.5 11.26
	L 87 12.12
	L 86.5 12.99
	L 85.5 12.99
	M 86.5 12.99
	L 86 13.86
	M 87 12.12
	L 87.5 12.99
	L 87 13.86
	M 87.5 12.99
	L 88 13.86
	M 80 0
	L 81 0
	L 81.5 0.866
	M 81 0
	L 82 0
	L 82.5 0.866
	L 82 1.732
	M 82.5 0.866
	L 83 1.732
	M 82 0
	L 83 0
	L 83.5 0.866
	M 83 0
	L 84 0
	L 84.5 0.866
	L 84 1.732
	M 84.5 0.866
	L 85 1.732
	L 84.5 2.598
	L 83.5 2.598
	M 84.5 2.598
	L 84 3.464
	M 85 1.732
	L 85.5 2.598
	L 85 3.464
	M 85.5 2.598
	L 86 3.464
	M 84 0
	L 85 0
	L 85.5 0.866
	M 85 0
	L 86 0
	L 86.5 0.866
	L 86 1.732
	M 86.5 0.866
	L 87 1.732
	M 86 0
	L 87 0
	L 87.5 0.866
	M 87 0
	L 88 0
	L 88.5 0.866
	L 88 1.732
	M 88.5 0.866
	L 89 1.732
	L 88.5 2.598
	L 87.5 2.598
	M 88.5 2.598
	L 88 3.464
	M 89 1.732
	L 89.5 2.598
	L 89 3.464
	M 89.5 2.598
	L 90 3.464
	L 89.5 4.33
	L 88.5 4.33
	M 89.5 4.33
	L 89 5.196
	L 88 5.196
	L 87.5 4.33
	M 88 5.196
	L 87 5.196
	M 89 5.196
	L 88.5 6.062
	L 87.5 6.062
	M 88.5 6.062
	L 88 6.928
	M 90 3.464
	L 90.5 4.33
	L 90 5.196
	M 90.5 4.33
	L 91 5.196
	L 90.5 6.062
	L 89.5 6.062
	M 90.5 6.062
	L 90 6.928
	M 91 5.196
	L 91.5 6.062
	L 91 6.928
	M 91.5 6.062
	L 92 6.928
	M 88 0
	L 89 0
	L 89.5 0.866
	M 89 0
	L 90 0
	L 90.5 0.866
	L 90 1.732
	M 90.5 0.866
	L 91 1.732
	M 90 0
	L 91 0
	L 91.5 0.866
	M 91 0
	L 92 0
	L 92.5 0.866
	L 92 1.732
	M 92.5 0.866
	L 93 1.732
	L 92.5 2.598
	L 91.5 2.598
	M 92.5 2.598
	L 92 3.464
	M 93 1.732
	L 93.5 2.598
	L 93 3.464
	M 93.5 2.598
	L 94 3.464
	M 92 0
	L 93 0
	L 93.5 0.866
	M 93 0
	L 94 0
	L 94.5 0.866
	L 94 1.732
	M 94.5 0.866
	L 95 1.732
	M 94 0
	L 95 0
	L 95.5 0.866
	M 95 0
	L 96 0
	L 96.5 0.866
	L 96 1.732
	M 96.5 0.866
	L 97 1.732
	L 96.5 2.598
	L 95.5 2.598
	M 96.5 2.598
	L 96 3.464
	M 97 1.732
	L 97.5 2.598
	L 97 3.464
	M 97.5 2.598
	L 98 3.464
	L 97.5 4.33
	L 96.5 4.33
	M 97.5 4.33
	L 97 5.196
	L 96 5.196
	L 95.5 4.33
	M 96 5.196
	L 95 5.196
	M 97 5.196
	L 96.5 6.062
	L 95.5 6.062
	M 96.5 6.062
	L 96 6.928
	M 98 3.464
	L 98.5 4.33
	L 98 5.196
	M 98.5 4.33
	L 99 5.196
	L 98.5 6.062
	L 97.5 6.062
	M 98.5 6.062
	L 98 6.928
	M 99 5.196
	L 99.5 6.062
	L 99 6.928
	M 99.5 6.062
	L 100 6.928
	L 99.5 7.794
	L 98.5 7.794
	M 99.5 7.794
	L 99 8.66
	L 98 8.66
	L 97.5 7.794
	M 98 8.66
	L 97 8.66
	M 99 8.66
	L 98.5 9.526
	L 97.5 9.526
	M 98.5 9.526
	L 98 10.39
	L 97 10.39
	L 96.5 9.526
	M 97 10.39
	L 96 10.39
	L 95.5 9.526
	L 96 8.66
	M 95.5 9.526
	L 95 8.66
	M 96 10.39
	L 95 10.39
	L 94.5 9.526
	M 95 10.39
	L 94 10.39
	M 98 10.39
	L 97.5 11.26
	L 96.5 11.26
	M 97.5 11.26
	L 97 12.12
	L 96 12.12
	L 95.5 11.26
	M 96 12.12
	L 95 12.12
	M 97 12.12
	L 96.5 12.99
	L 95.5 12.99
	M 96.5 12.99
	L 96 13.86
	M 100 6.928
	L 100.5 7.794
	L 100 8.66
	M 100.5 7.794
	L 101 8.66
	L 100.5 9.526
	L 99.5 9.526
	M 100.5 9.526
	L 100 10.39
	M 101 8.66
	L 101.5 9.526
	L 101 10.39
	M 101.5 9.526
	L 102 10.39
	L 101.5 11.26
	L 100.5 11.26
	M 101.5 11.26
	L 101 12.12
	L 100 12.12
	L 99.5 11.26
	M 100 12.12
	L 99 12.12
	M 101 12.12
	L 100.5 12.99
	L 99.5 12.99
	M 100.5 12.99
	L 100 13.86
	M 102 10.39
	L 102.5 11.26
	L 102 12.12
	M 102.5 11.26
	L 103 12.12
	L 102.5 12.99
	L 101.5 12.99
	M 102.5 12.99
	L 102 13.86
	M 103 12.12
	L 103.5 12.99
	L 103 13.86
	M 103.5 12.99
	L 104 13.86
	L 103.5 14.72
	L 102.5 14.72
	M 103.5 14.72
	L 103 15.59
	L 102 15.59
	L 101.5 14.72
	M 102 15.59
	L 101 15.59
	M 103 15.59
	L 102.5 16.45
	L 101.5 16.45
	M 102.5 16.45
	L 102 17.32
	L 101 17.32
	L 100.5 16.45
	M 101 17.32
	L 100 17.32
	L 99.5 16.45
	L 100 15.59
	M 99.5 16.45
	L 99 15.59
	M 100 17.32
	L 99 17.32
	L 98.5 16.45
	M 99 17.32
	L 98 17.32
	M 102 17.32
	L 101.5 18.19
	L 100.5 18.19
	M 101.5 18.19
	L 101 19.05
	L 100 19.05
	L 99.5 18.19
	M 100 19.05
	L 99 19.05
	M 101 19.05
	L 100.5 19.92
	L 99.5 19.92
	M 100.5 19.92
	L 100 20.78
	L 99 20.78
	L 98.5 19.92
	M 99 20.78
	L 98 20.78
	L 97.5 19.92
	L 98 19.05
	M 97.5 19.92
	L 97 19.05
	M 98 20.78
	L 97 20.78
	L 96.5 19.92
	M 97 20.78
	L 96 20.78
	L 95.5 19.92
	L 96 19.05
	M 95.5 19.92
	L 95 19.05
	L 95.5 18.19
	L 96.5 18.19
	M 95.5 18.19
	L 96 17.32
	M 95 19.05
	L 94.5 18.19
	L 95 17.32
	M 94.5 18.19
	L 94 17.32
	M 96 20.78
	L 95 20.78
	L 94.5 19.92
	M 95 20.78
	L 94 20.78
	L 93.5 19.92
	L 94 19.05
	M 93.5 19.92
	L 93 19.05
	M 94 20.78
	L 93 20.78
	L 92.5 19.92
	M 93 20.78
	L 92 20.78
	M 100 20.78
	L 99.5 21.65
	L 98.5 21.65
	M 99.5 21.65
	L 99 22.52
	L 98 22.52
	L 97.5 21.65
	M 98 22.52
	L 97 22.52
	M 99 22.52
	L 98.5 23.38
	L 97.5 23.38
	M 98.5 23.38
	L 98 24.25
	L 97 24.25
	L 96.5 23.38
	M 97 24.25
	L 96 24.25
	L 95.5 23.38
	L 96 22.52
	M 95.5 23.38
	L 95 22.52
	M 96 24.25
	L 95 24.25
	L 94.5 23.38
	M 95 24.25
	L 94 24.25
	M 98 24.25
	L 97.5 25.11
	L 96.5 25.11
	M 97.5 25.11
	L 97 25.98
	L 96 25.98
	L 95.5 25.11
	M 96 25.98
	L 95 25.98
	M 97 25.98
	L 96.5 26.85
	L 95.5 26.85
	M 96.5 26.85
	L 96 27.71
	M 104 13.86
	L 104.5 14.72
	L 104 15.59
	M 104.5 14.72
	L 105 15.59
	L 104.5 16.45
	L 103.5 16.45
	M 104.5 16.45
	L 104 17.32
	M 105 15.59
	L 105.5 16.45
	L 105 17.32
	M 105.5 16.45
	L 106 17.32
	L 105.5 18.19
	L 104.5 18.19
	M 105.5 18.19
	L 105 19.05
	L 104 19.05
	L 103.5 18.19
	M 104 19.05
	L 103 19.05
	M 105 19.05
	L 104.5 19.92
	L 103.5 19.92
	M 104.5 19.92
	L 104 20.78
	M 106 17.32
	L 106.5 18.19
	L 106 19.05
	M 106.5 18.19
	L 107 19.05
	L 106.5 19.92
	L 105.5 19.92
	M 106.5 19.92
	L 106 20.78
	M 107 19.05
	L 107.5 19.92
	L 107 20.78
	M 107.5 19.92
	L 108 20.78
	L 107.5 21.65
	L 106.5 21.65
	M 107.5 21.65
	L 107 22.52
	L 106 22.52
	L 105.5 21.65
	M 106 22.52
	L 105 22.52
	M 107 22.52
	L 106.5 23.38
	L 105.5 23.38
	M 106.5 23.38
	L 106 24.25
	L 105 24.25
	L 104.5 23.38
	M 105 24.25
	L 104 24.25
	L 103.5 23.38
	L 104 22.52
	M 103.5 23.38
	L 103 22.52
	M 104 24.25
	L 103 24.25
	L 102.5 23.38
	M 103 24.25
	L 102 24.25
	M 106 24.25
	L 105.5 25.11
	L 104.5 25.11
	M 105.5 25.11
	L 105 25.98
	L 104 25.98
	L 103.5 25.11
	M 104 25.98
	L 103 25.98
	M 105 25.98
	L 104.5 26.85
	L 103.5 26.85
	M 104.5 26.85
	L 104 27.71
	M 108 20.78
	L 108.5 21.65
	L 108 22.52
	M 108.5 21.65
	L 109 22.52
	L 108.5 23.38
	L 107.5 23.38
	M 108.5 23.38
	L 108 24.25
	M 109 22.52
	L 109.5 23.38
	L 109 24.25
	M 109.5 23.38
	L 110 24.25
	L 109.5 25.11
	L 108.5 25.11
	M 109.5 25.11
	L 109 25.98
	L 108 25.98
	L 107.5 25.11
	M 108 25.98
	L 107 25.98
	M 109 25.98
	L 108.5 26.85
	L 107.5 26.85
	M 108.5 26.85
	L 108 27.71
	M 110 24.25
	L 110.5 25.11
	L 110 25.98
	M 110.5 25.11
	L 111 25.98
	L 110.5 26.85
	L 109.5 26.85
	M 110.5 26.85
	L 110 27.71
	M 111 25.98
	L 111.5 26.85
	L 111 27.71
	M 111.5 26.85
	L 112 27.71
	M 96 0
	L 97 0
	L 97.5 0.866
	M 97 0
	L 98 0
	L 98.5 0.866
	L 98 1.732
	M 98.5 0.866
	L 99 1.732
	M 98 0
	L 99 0
	L 99.5 0.866
	M 99 0
	L 100 0
	L 100.5 0.866
	L 100 1.732
	M 100.5 0.866
	L 101 1.732
	L 100.5 2.598
	L 99.5 2.598
	M 100.5 2.598
	L 100 3.464
	M 101 1.732
	L 101.5 2.598
	L 101 3.464
	M 101.5 2.598
	L 102 3.464
	M 100 0
	L 101 0
	L 101.5 0.866
	M 101 0
	L 102 0
	L 102.5 0.866
	L 102 1.732
	M 102.5 0.866
	L 103 1.732
	M 102 0
	L 103 0
	L 103.5 0.866
	M 103 0
	L 104 0
	L 104.5 0.866
	L 104 1.732
	M 104.5 0.866
	L 105 1.732
	L 104.5 2.598
	L 103.5 2.598
	M 104.5 2.598
	L 104 3.464
	M 105 1.732
	L 105.5 2.598
	L 105 3.464
	M 105.5 2.598
	L 106 3.464
	L 105.5 4.33
	L 104.5 4.33
	M 105.5 4.33
	L 105 5.196
	L 104 5.196
	L 103.5 4.33
	M 104 5.196
	L 103 5.196
	M 105 5.196
	L 104.5 6.062
	L 103.5 6.062
	M 104.5 6.062
	L 104 6.928
	M 106 3.464
	L 106.5 4.33
	L 106 5.196
	M 106.5 4.33
	L 107 5.196
	L 106.5 6.062
	L 105.5 6.062
	M 106.5 6.062
	L 106 6.928
	M 107 5.196
	L 107.5 6.062
	L 107 6.928
	M 107.5 6.062
	L 108 6.928
	M 104 0
	L 105 0
	L 105.5 0.866
	M 105 0
	L 106 0
	L 106.5 0.866
	L 106 1.732
	M 106.5 0.866
	L 107 1.732
	M 106 0
	L 107 0
	L 107.5 0.866
	M 107 0
	L 108 0
	L 108.5 0.866
	L 108 1.732
	M 108.5 0.866
	L 109 1.732
	L 108.5 2.598
	L 107.5 2.598
	M 108.5 2.598
	L 108 3.464
	M 109 1.732
	L 109.5 2.598
	L 109 3.464
	M 109.5 2.598
	L 110 3.464
	M 108 0
	L 109 0
	L 109.5 0.866
	M 109 0
	L 110 0
	L 110.5 0.866
	L 110 1.732
	M 110.5 0.866
	L 111 1.732
	M 110 0
	L 111 0
	L 111.5 0.866
	M 111 0
	L 112 0
	L 112.5 0.866
	L 112 1.732
	M 112.5 0.866
	L 113 1.732
	L 112.5 2.598
	L 111.5 2.598
	M 112.5 2.598
	L 112 3.464
	M 113 1.732
	L 113.5 2.598
	L 113 3.464
	M 113.5 2.598
	L 114 3.464
	L 113.5 4.33
	L 112.5 4.33
	M 113.5 4.33
	L 113 5.196
	L 112 5.196
	L 111.5 4.33
	M 112 5.196
	L 111 5.196
	M 113 5.196
	L 112.5 6.062
	L 111.5 6.062
	M 112.5 6.062
	L 112 6.928
	M 114 3.464
	L 114.5 4.33
	L 114 5.196
	M 114.5 4.33
	L 115 5.196
	L 114.5 6.062
	L 113.5 6.062
	M 114.5 6.062
	L 114 6.928
	M 115 5.196
	L 115.5 6.062
	L 115 6.928
	M 115.5 6.062
	L 116 6.928
	L 115.5 7.794
	L 114.5 7.794
	M 115.5 7.794
	L 115 8.66
	L 114 8.66
	L 113.5 7.794
	M 114 8.66
	L 113 8.66
	M 115 8.66
	L 114.5 9.526
	L 113.5 9.526
	M 114.5 9.526
	L 114 10.39
	L 113 10.39
	L 112.5 9.526
	M 113 10.39
	L 112 10.39
	L 111.5 9.526
	L 112 8.66
	M 111.5 9.526
	L 111 8.66
	M 112 10.39
	L 111 10.39
	L 110.5 9.526
	M 111 10.39
	L 110 10.39
	M 114 10.39
	L 113.5 11.26
	L 112.5 11.26
	M 113.5 11.26
	L 113 12.12
	L 112 12.12
	L 111.5 11.26
	M 112 12.12
	L 111 12.12
	M 113 12.12
	L 112.5 12.99
	L 111.5 12.99
	M 112.5 12.99
	L 112 13.86
	M 116 6.928
	L 116.5 7.794
	L 116 8.66
	M 116.5 7.794
	L 117 8.66
	L 116.5 9.526
	L 115.5 9.526
	M 116.5 9.526
	L 116 10.39
	M 117 8.66
	L 117.5 9.526
	L 117 10.39
	M 117.5 9.526
	L 118 10.39
	L 117.5 11.26
	L 116.5 11.26
	M 117.5 11.26
	L 117 12.12
	L 116 12.12
	L 115.5 11.26
	M 116 12.12
	L 115 12.12
	M 117 12.12
	L 116.5 12.99
	L 115.5 12.99
	M 116.5 12.99
	L 116 13.86
	M 118 10.39
	L 118.5 11.26
	L 118 12.12
	M 118.5 11.26
	L 119 12.12
	L 118.5 12.99
	L 117.5 12.99
	M 118.5 12.99
	L 118 13.86
	M 119 12.12
	L 119.5 12.99
	L 119 13.86
	M 119.5 12.99
	L 120 13.86
	M 112 0
	L 113 0
	L 113.5 0.866
	M 113 0
	L 114 0
	L 114.5 0.866
	L 114 1.732
	M 114.5 0.866
	L 115 1.732
	M 114 0
	L 115 0
	L 115.5 0.866
	M 115 0
	L 116 0
	L 116.5 0.866
	L 116 1.732
	M 116.5 0.866
	L 117 1.732
	L 116.5 2.598
	L 115.5 2.598
	M 116.5 2.598
	L 116 3.464
	M 117 1.732
	L 117.5 2.598
	L 117 3.464
	M 117.5 2.598
	L 118 3.464
	M 116 0
	L 117 0
	L 117.5 0.866
	M 117 0
	L 118 0
	L 118.5 0.866
	L 118 1.732
	M 118.5 0.866
	L 119 1.732
	M 118 0
	L 119 0
	L 119.5 0.866
	M 119 0
	L 120 0
	L 120.5 0.866
	L 120 1.732
	M 120.5 0.866
	L 121 1.732
	L 120.5 2.598
	L 119.5 2.598
	M 120.5 2.598
	L 120 3.464
	M 121 1.732
	L 121.5 2.598
	L 121 3.464
	M 121.5 2.598
	L 122 3.464
	L 121.5 4.33
	L 120.5 4.33
	M 121.5 4.33
	L 121 5.196
	L 120 5.196
	L 119.5 4.33
	M 120 5.196
	L 119 5.196
	M 121 5.196
	L 120.5 6.062
	L 119.5 6.062
	M 120.5 6.062
	L 120 6.928
	M 122 3.464
	L 122.5 4.33
	L 122 5.196
	M 122.5 4.33
	L 123 5.196
	L 122.5 6.062
	L 121.5 6.062
	M 122.5 6.062
	L 122 6.928
	M 123 5.196
	L 123.5 6.062
	L 123 6.928
	M 123.5 6.062
	L 124 6.928
	M 120 0
	L 121 0
	L 121.5 0.866
	M 121 0
	L 122 0
	L 122.5 0.866
	L 122 1.732
	M 122.5 0.866
	L 123 1.732
	M 122 0
	L 123 0
	L 123.5 0.866
	M 123 0
	L 124 0
	L 124.5 0.866
	L 124 1.732
	M 124.5 0.866
	L 125 1.732
	L 124.5 2.598
	L 123.5 2.598
	M 124.5 2.598
	L 124 3.464
	M 125 1.732
	L 125.5 2.598
	L 125 3.464
	M 125.5 2.598
	L 126 3.464
	M 124 0
	L 125 0
	L 125.5 0.866
	M 125 0
	L 126 0
	L 126.5 0.866
	L 126 1.732
	M 126.5 0.866
	L 127 1.732
	M 126 0
	L 127 0
	L 127.5 0.866
	M 127 0
	L 128 0
"/>
</svg>
