<svg version="1.1" baseProfile="full" xmlns="http://www.w3.org/2000/svg"
width="701.9" height="1024"
viewBox="-15.47 -12.6 26.3 38.37"
>
<rect x="-15.47" y="-12.6" width="100%" height="100%" fill="white" />
<path stroke="green" stroke-width="0.04" stroke-linecap="round" fill="none"
transform="scale(1 -1)"
d="	M 0 0
	L 1 0
	L 1.924 0.3827
	L 2.631 1.09
	L 3.555 1.472
	L 4.262 2.18
	L 4.645 3.103
	L 4.645 4.103
	L 4.262 5.027
	L 4.262 6.027
	L 3.879 6.951
	L 3.172 7.658
	L 2.789 8.582
	L 2.789 9.582
	L 3.172 10.51
	L 3.879 11.21
	L 4.803 11.6
	L 5.803 11.6
	L 6.727 11.21
	L 7.434 10.51
	L 8.358 10.12
	L 9.065 9.416
	L 9.448 8.492
	L 9.448 7.492
	L 9.831 6.569
	L 9.831 5.569
	L 9.448 4.645
	L 8.741 3.938
	L 8.358 3.014
	L 8.358 2.014
	L 8.741 1.09
	L 8.741 0.08979
	L 8.358 -0.8341
	M 0 0
	L -1.034e-13 -1
	L -0.3827 -1.924
	L -0.3827 -2.924
	L -0.7654 -3.848
	L -1.472 -4.555
	L -2.396 -4.938
	L -3.396 -4.938
	L -4.32 -5.32
	L -5.027 -6.027
	L -5.951 -6.41
	L -6.658 -7.117
	L -7.582 -7.5
	L -8.289 -8.207
	L -8.672 -9.131
	L -8.672 -10.13
	L -8.289 -11.05
	L -8.289 -12.05
	L -7.907 -12.98
	L -7.907 -13.98
	L -7.524 -14.9
	L -7.524 -15.9
	L -7.907 -16.83
	L -7.907 -17.83
	L -7.524 -18.75
	L -7.524 -19.75
	L -7.141 -20.67
	L -7.141 -21.67
	L -6.759 -22.6
	L -6.051 -23.31
	L -5.128 -23.69
	L -4.42 -24.39
	L -3.497 -24.78
	M 0 0
	L -1.034e-13 1
	L 0.3827 1.924
	L 0.3827 2.924
	L -3.977e-13 3.848
	L -0.7071 4.555
	L -1.631 4.938
	L -2.631 4.938
	L -3.555 4.555
	L -4.262 3.848
	L -5.186 3.465
	L -5.893 2.758
	L -6.817 2.375
	L -7.524 1.668
	L -7.907 0.7443
	L -7.907 -0.2557
	L -7.524 -1.18
	L -7.524 -2.18
	L -7.141 -3.103
	L -7.141 -4.103
	L -6.759 -5.027
	L -6.759 -6.027
	L -7.141 -6.951
	L -7.848 -7.658
	L -8.772 -8.041
	L -9.772 -8.041
	L -10.7 -8.424
	L -11.4 -9.131
	L -11.79 -10.05
	L -11.79 -11.05
	L -11.4 -11.98
	L -11.4 -12.98
	L -11.79 -13.9
	M 0 0
	L -1 -2.068e-13
	L -1.924 -0.3827
	L -2.631 -1.09
	L -3.014 -2.014
	L -3.014 -3.014
	L -3.396 -3.938
	L -4.103 -4.645
	L -4.486 -5.569
	L -4.486 -6.569
	L -4.869 -7.492
	L -5.576 -8.2
	L -5.959 -9.123
	L -5.959 -10.12
	L -6.341 -11.05
	L -7.048 -11.75
	L -7.431 -12.68
	L -7.431 -13.68
	L -7.814 -14.6
	L -7.814 -15.6
	L -7.431 -16.53
	L -7.431 -17.53
	L -7.814 -18.45
	L -8.521 -19.16
	L -8.904 -20.08
	L -8.904 -21.08
	L -9.286 -22
	L -9.993 -22.71
	L -10.92 -23.09
	L -11.62 -23.8
	L -12.55 -24.18
	L -13.55 -24.18
	L -14.47 -24.57
"/>
</svg>
