<svg version="1.1" baseProfile="full" xmlns="http://www.w3.org/2000/svg"
width="372.2" height="1024"
viewBox="-24.03 -1 67.14 184.7"
>
<rect x="-24.03" y="-1" width="100%" height="100%" fill="white" />
<path stroke="green" stroke-width="0.04" stroke-linecap="round" fill="none"
transform="scale(1 -1)"
d="	M 0 0
	L 0.1564 -0.9877
	L 0.3129 -1.975
	L 0.4693 -2.963
	L 0.6257 -3.951
	L 0.7822 -4.938
	L 0.9386 -5.926
	L 1.248 -6.877
	L 1.557 -7.828
	L 1.866 -8.779
	L 2.175 -9.73
	L 2.629 -10.62
	L 3.083 -11.51
	L 3.537 -12.4
	L 3.991 -13.29
	L 4.3 -14.25
	L 4.609 -15.2
	L 4.918 -16.15
	L 5.227 -17.1
	L 5.383 -18.09
	L 5.54 -19.07
	L 5.696 -20.06
	L 5.852 -21.05
	L 6.161 -22
	L 6.47 -22.95
	L 6.779 -23.9
	L 7.089 -24.85
	L 7.245 -25.84
	L 7.401 -26.83
	L 7.558 -27.82
	L 7.714 -28.8
	L 8.023 -29.76
	L 8.332 -30.71
	L 8.641 -31.66
	L 8.95 -32.61
	L 9.259 -33.56
	L 9.568 -34.51
	L 9.877 -35.46
	L 10.19 -36.41
	L 10.5 -37.36
	L 10.8 -38.31
	L 11.11 -39.27
	L 11.42 -40.22
	L 11.88 -41.11
	L 12.33 -42
	L 12.78 -42.89
	L 13.24 -43.78
	L 13.69 -44.67
	L 14.15 -45.56
	L 14.6 -46.45
	L 15.05 -47.35
	L 15.36 -48.3
	L 15.67 -49.25
	L 15.98 -50.2
	L 16.29 -51.15
	L 16.74 -52.04
	L 17.2 -52.93
	L 17.65 -53.82
	L 18.11 -54.71
	L 18.69 -55.52
	L 19.28 -56.33
	L 19.87 -57.14
	L 20.46 -57.95
	L 20.91 -58.84
	L 21.37 -59.73
	L 21.82 -60.62
	L 22.27 -61.51
	L 22.86 -62.32
	L 23.45 -63.13
	L 24.04 -63.94
	L 24.62 -64.75
	L 25.33 -65.46
	L 26.04 -66.16
	L 26.75 -66.87
	L 27.45 -67.58
	L 28.16 -68.29
	L 28.87 -68.99
	L 29.57 -69.7
	L 30.28 -70.41
	L 30.87 -71.22
	L 31.46 -72.02
	L 32.04 -72.83
	L 32.63 -73.64
	L 33.34 -74.35
	L 34.05 -75.06
	L 34.75 -75.76
	L 35.46 -76.47
	L 36.05 -77.28
	L 36.64 -78.09
	L 37.22 -78.9
	L 37.81 -79.71
	L 38.27 -80.6
	L 38.72 -81.49
	L 39.17 -82.38
	L 39.63 -83.27
	L 39.94 -84.22
	L 40.25 -85.17
	L 40.56 -86.12
	L 40.86 -87.08
	L 41.02 -88.06
	L 41.18 -89.05
	L 41.33 -90.04
	L 41.49 -91.03
	L 41.65 -92.01
	L 41.8 -93
	L 41.96 -93.99
	L 42.12 -94.98
	L 42.12 -95.98
	L 42.12 -96.98
	L 42.12 -97.98
	L 42.12 -98.98
	L 41.96 -99.96
	L 41.8 -101
	L 41.65 -101.9
	L 41.49 -102.9
	L 41.18 -103.9
	L 40.87 -104.8
	L 40.56 -105.8
	L 40.25 -106.7
	L 40.1 -107.7
	L 39.94 -108.7
	L 39.78 -109.7
	L 39.63 -110.7
	L 39.32 -111.6
	L 39.01 -112.6
	L 38.7 -113.5
	L 38.39 -114.5
	L 38.24 -115.5
	L 38.08 -116.5
	L 37.92 -117.4
	L 37.77 -118.4
	L 37.46 -119.4
	L 37.15 -120.3
	L 36.84 -121.3
	L 36.53 -122.2
	L 36.08 -123.1
	L 35.62 -124
	L 35.17 -124.9
	L 34.71 -125.8
	L 34.13 -126.6
	L 33.54 -127.4
	L 32.95 -128.2
	L 32.36 -129
	L 31.78 -129.9
	L 31.19 -130.7
	L 30.6 -131.5
	L 30.01 -132.3
	L 29.42 -133.1
	L 28.84 -133.9
	L 28.25 -134.7
	L 27.66 -135.5
	L 26.95 -136.2
	L 26.25 -136.9
	L 25.54 -137.6
	L 24.83 -138.3
	L 24.24 -139.2
	L 23.66 -140
	L 23.07 -140.8
	L 22.48 -141.6
	L 21.77 -142.3
	L 21.07 -143
	L 20.36 -143.7
	L 19.65 -144.4
	L 19.07 -145.2
	L 18.48 -146
	L 17.89 -146.8
	L 17.3 -147.6
	L 16.59 -148.3
	L 15.89 -149.1
	L 15.18 -149.8
	L 14.47 -150.5
	L 13.77 -151.2
	L 13.06 -151.9
	L 12.35 -152.6
	L 11.64 -153.3
	L 10.84 -153.9
	L 10.03 -154.5
	L 9.218 -155.1
	L 8.409 -155.7
	L 7.702 -156.4
	L 6.995 -157.1
	L 6.288 -157.8
	L 5.58 -158.5
	L 4.771 -159.1
	L 3.962 -159.7
	L 3.153 -160.2
	L 2.344 -160.8
	L 1.453 -161.3
	L 0.5624 -161.7
	L -0.3287 -162.2
	L -1.22 -162.6
	L -2.029 -163.2
	L -2.838 -163.8
	L -3.647 -164.4
	L -4.456 -165
	L -5.347 -165.5
	L -6.238 -165.9
	L -7.129 -166.4
	L -8.02 -166.8
	L -8.829 -167.4
	L -9.638 -168
	L -10.45 -168.6
	L -11.26 -169.2
	L -11.96 -169.9
	L -12.67 -170.6
	L -13.38 -171.3
	L -14.08 -172
	L -14.67 -172.8
	L -15.26 -173.6
	L -15.85 -174.4
	L -16.44 -175.2
	L -17.14 -175.9
	L -17.85 -176.6
	L -18.56 -177.4
	L -19.26 -178.1
	L -19.85 -178.9
	L -20.44 -179.7
	L -21.03 -180.5
	L -21.61 -181.3
	L -22.32 -182
	L -23.03 -182.7
"/>
</svg>
