<svg version="1.1" baseProfile="full" xmlns="http://www.w3.org/2000/svg"
width="1024" height="144.9"
viewBox="-1 -2.636 60.65 8.581"
>
<rect x="-1" y="-2.636" width="100%" height="100%" fill="white" />
<path stroke="green" stroke-width="0.04" stroke-linecap="round" fill="none"
transform="scale(1 -1)"
d="	M 0 0
	L 1 0
	L 1.978 0.2079
	M 1 0
	L 2 0
	L 2.978 -0.2079
	M 2 0
	L 3 0
	L 3.978 -0.2079
	L 4.892 -0.6146
	M 3.978 -0.2079
	L 4.956 -0.4158
	M 3 0
	L 4 0
	L 4.978 0.2079
	M 4 0
	L 5 0
	L 5.978 0.2079
	L 6.892 0.6146
	M 5.978 0.2079
	L 6.956 0.4158
	L 7.87 0.8226
	L 8.848 1.03
	M 7.87 0.8226
	L 8.783 1.229
	M 6.956 0.4158
	L 7.934 0.6237
	L 8.848 1.03
	M 7.934 0.6237
	L 8.913 0.8316
	L 9.913 0.8316
	L 10.89 1.04
	M 9.913 0.8316
	L 10.91 0.8316
	L 11.89 0.6237
	M 10.91 0.8316
	L 11.91 0.8316
	M 8.913 0.8316
	L 9.891 1.04
	L 10.8 1.446
	M 9.891 1.04
	L 10.87 1.247
	L 11.87 1.247
	M 10.87 1.247
	L 11.85 1.455
	M 5 0
	L 6 0
	L 6.978 0.2079
	M 6 0
	L 7 0
	L 7.978 0.2079
	L 8.892 0.6146
	M 7.978 0.2079
	L 8.956 0.4158
	L 9.956 0.4158
	M 8.956 0.4158
	L 9.934 0.6237
	M 7 0
	L 8 0
	L 8.978 0.2079
	M 8 0
	L 9 0
	L 9.978 -0.2079
	M 9 0
	L 10 0
	L 10.98 -0.2079
	L 11.98 -0.2079
	M 10.98 -0.2079
	L 11.96 -0.4158
	L 12.87 -0.8226
	M 11.96 -0.4158
	L 12.93 -0.6237
	M 10 0
	L 11 0
	L 11.98 -0.2079
	M 11 0
	L 12 0
	L 12.98 -0.2079
	L 13.98 -0.2079
	M 12.98 -0.2079
	L 13.96 -0.4158
	L 14.96 -0.4158
	L 15.93 -0.2079
	M 14.96 -0.4158
	L 15.96 -0.4158
	L 16.93 -0.6237
	M 15.96 -0.4158
	L 16.96 -0.4158
	M 13.96 -0.4158
	L 14.93 -0.6237
	L 15.85 -1.03
	M 14.93 -0.6237
	L 15.91 -0.8316
	L 16.83 -1.238
	L 17.8 -1.446
	M 16.83 -1.238
	L 17.74 -1.645
	M 15.91 -0.8316
	L 16.89 -1.04
	L 17.8 -1.446
	M 16.89 -1.04
	L 17.87 -1.247
	L 18.78 -1.654
	L 19.76 -1.862
	M 18.78 -1.654
	L 19.7 -2.061
	L 20.5 -2.649
	M 19.7 -2.061
	L 20.61 -2.468
	L 21.59 -2.676
	L 22.5 -3.082
	M 21.59 -2.676
	L 22.57 -2.884
	M 20.61 -2.468
	L 21.52 -2.874
	L 22.33 -3.462
	M 21.52 -2.874
	L 22.44 -3.281
	M 17.87 -1.247
	L 18.85 -1.455
	L 19.85 -1.455
	M 18.85 -1.455
	L 19.83 -1.663
	L 20.74 -2.07
	L 21.72 -2.278
	M 20.74 -2.07
	L 21.65 -2.477
	M 19.83 -1.663
	L 20.8 -1.871
	L 21.72 -2.278
	M 20.8 -1.871
	L 21.78 -2.079
	M 12 0
	L 13 0
	L 13.98 -0.2079
	M 13 0
	L 14 0
	L 14.98 -0.2079
	L 15.98 -0.2079
	M 14.98 -0.2079
	L 15.96 -0.4158
	M 14 0
	L 15 0
	L 15.98 0.2079
	M 15 0
	L 16 0
	L 16.98 -0.2079
	M 16 0
	L 17 0
	L 17.98 0.2079
	L 18.89 0.6146
	M 17.98 0.2079
	L 18.96 0.4158
	L 19.87 0.8226
	L 20.68 1.41
	M 19.87 0.8226
	L 20.78 1.229
	L 21.76 1.437
	M 20.78 1.229
	L 21.7 1.636
	M 18.96 0.4158
	L 19.93 0.6237
	L 20.93 0.6237
	M 19.93 0.6237
	L 20.91 0.8316
	M 17 0
	L 18 0
	L 18.98 0.2079
	M 18 0
	L 19 0
	L 19.98 -0.2079
	L 20.98 -0.2079
	M 19.98 -0.2079
	L 20.96 -0.4158
	M 19 0
	L 20 0
	L 20.98 0.2079
	M 20 0
	L 21 0
	L 21.98 -0.2079
	M 21 0
	L 22 0
	L 22.98 -0.2079
	L 23.98 -0.2079
	M 22.98 -0.2079
	L 23.96 -0.4158
	L 24.87 -0.8226
	L 25.85 -1.03
	M 24.87 -0.8226
	L 25.78 -1.229
	L 26.59 -1.817
	M 25.78 -1.229
	L 26.7 -1.636
	M 23.96 -0.4158
	L 24.93 -0.6237
	L 25.93 -0.6237
	M 24.93 -0.6237
	L 25.91 -0.8316
	L 26.83 -1.238
	L 27.8 -1.446
	M 26.83 -1.238
	L 27.74 -1.645
	L 28.55 -2.233
	L 29.22 -2.976
	M 28.55 -2.233
	L 29.36 -2.821
	M 27.74 -1.645
	L 28.65 -2.052
	L 29.63 -2.26
	M 28.65 -2.052
	L 29.57 -2.459
	L 30.38 -3.046
	M 29.57 -2.459
	L 30.48 -2.865
	M 25.91 -0.8316
	L 26.89 -1.04
	L 27.89 -1.04
	M 26.89 -1.04
	L 27.87 -1.247
	L 28.78 -1.654
	M 27.87 -1.247
	L 28.85 -1.455
	L 29.85 -1.455
	L 30.83 -1.247
	M 29.85 -1.455
	L 30.85 -1.455
	L 31.83 -1.663
	M 30.85 -1.455
	L 31.85 -1.455
	M 28.85 -1.455
	L 29.83 -1.663
	L 30.74 -2.07
	M 29.83 -1.663
	L 30.8 -1.871
	L 31.8 -1.871
	L 32.78 -1.663
	M 31.8 -1.871
	L 32.8 -1.871
	L 33.78 -2.079
	M 32.8 -1.871
	L 33.8 -1.871
	L 34.78 -1.663
	L 35.7 -1.257
	M 34.78 -1.663
	L 35.76 -1.455
	L 36.76 -1.455
	M 35.76 -1.455
	L 36.74 -1.247
	M 33.8 -1.871
	L 34.8 -1.871
	L 35.78 -1.663
	M 34.8 -1.871
	L 35.8 -1.871
	L 36.78 -2.079
	M 35.8 -1.871
	L 36.8 -1.871
	L 37.78 -1.663
	L 38.78 -1.663
	M 37.78 -1.663
	L 38.76 -1.455
	L 39.76 -1.455
	L 40.74 -1.247
	M 39.76 -1.455
	L 40.76 -1.455
	M 38.76 -1.455
	L 39.74 -1.247
	L 40.65 -0.8407
	M 39.74 -1.247
	L 40.72 -1.04
	L 41.72 -1.04
	M 40.72 -1.04
	L 41.69 -0.8316
	M 36.8 -1.871
	L 37.8 -1.871
	L 38.78 -2.079
	M 37.8 -1.871
	L 38.8 -1.871
	L 39.78 -1.663
	L 40.78 -1.663
	M 39.78 -1.663
	L 40.76 -1.455
	M 38.8 -1.871
	L 39.8 -1.871
	L 40.78 -1.663
	M 39.8 -1.871
	L 40.8 -1.871
	L 41.78 -2.079
	L 42.7 -2.486
	M 41.78 -2.079
	L 42.76 -2.287
	L 43.67 -2.694
	L 44.65 -2.902
	M 43.67 -2.694
	L 44.59 -3.101
	M 42.76 -2.287
	L 43.74 -2.495
	L 44.65 -2.902
	M 43.74 -2.495
	L 44.72 -2.703
	M 40.8 -1.871
	L 41.8 -1.871
	L 42.78 -2.079
	M 41.8 -1.871
	L 42.8 -1.871
	L 43.78 -1.663
	L 44.7 -1.257
	M 43.78 -1.663
	L 44.76 -1.455
	M 42.8 -1.871
	L 43.8 -1.871
	L 44.78 -1.663
	M 43.8 -1.871
	L 44.8 -1.871
	L 45.78 -2.079
	L 46.78 -2.079
	M 45.78 -2.079
	L 46.76 -2.287
	M 44.8 -1.871
	L 45.8 -1.871
	L 46.78 -2.079
	M 45.8 -1.871
	L 46.8 -1.871
	M 30.8 -1.871
	L 31.78 -2.079
	L 32.7 -2.486
	M 31.78 -2.079
	L 32.76 -2.287
	L 33.76 -2.287
	L 34.74 -2.079
	M 33.76 -2.287
	L 34.76 -2.287
	M 32.76 -2.287
	L 33.74 -2.495
	L 34.74 -2.495
	M 33.74 -2.495
	L 34.72 -2.703
	L 35.63 -3.11
	L 36.61 -3.318
	M 35.63 -3.11
	L 36.54 -3.516
	L 37.35 -4.104
	L 38.27 -4.511
	M 37.35 -4.104
	L 38.16 -4.692
	M 36.54 -3.516
	L 37.46 -3.923
	L 38.27 -4.511
	M 37.46 -3.923
	L 38.37 -4.33
	M 34.72 -2.703
	L 35.69 -2.911
	L 36.69 -2.911
	M 35.69 -2.911
	L 36.67 -3.119
	L 37.59 -3.525
	M 36.67 -3.119
	L 37.65 -3.327
	L 38.65 -3.327
	L 39.63 -3.119
	M 38.65 -3.327
	L 39.65 -3.327
	L 40.63 -3.534
	M 39.65 -3.327
	L 40.65 -3.327
	M 37.65 -3.327
	L 38.63 -3.534
	L 39.63 -3.534
	M 38.63 -3.534
	L 39.61 -3.742
	L 40.52 -4.149
	M 39.61 -3.742
	L 40.58 -3.95
	L 41.5 -4.357
	L 42.31 -4.945
	M 41.5 -4.357
	L 42.41 -4.764
	M 40.58 -3.95
	L 41.56 -4.158
	L 42.56 -4.158
	M 41.56 -4.158
	L 42.54 -4.366
	M 22 0
	L 23 0
	L 23.98 0.2079
	M 23 0
	L 24 0
	L 24.98 -0.2079
	M 24 0
	L 25 0
	L 25.98 -0.2079
	L 26.98 -0.2079
	M 25.98 -0.2079
	L 26.96 -0.4158
	M 25 0
	L 26 0
	L 26.98 0.2079
	M 26 0
	L 27 0
	L 27.98 0.2079
	L 28.98 0.2079
	M 27.98 0.2079
	L 28.96 0.4158
	L 29.87 0.8226
	L 30.68 1.41
	M 29.87 0.8226
	L 30.78 1.229
	L 31.76 1.437
	M 30.78 1.229
	L 31.7 1.636
	M 28.96 0.4158
	L 29.93 0.6237
	L 30.85 1.03
	M 29.93 0.6237
	L 30.91 0.8316
	L 31.91 0.8316
	M 30.91 0.8316
	L 31.89 1.04
	M 27 0
	L 28 0
	L 28.98 0.2079
	M 28 0
	L 29 0
	L 29.98 0.2079
	L 30.89 0.6146
	M 29.98 0.2079
	L 30.96 0.4158
	M 29 0
	L 30 0
	L 30.98 0.2079
	M 30 0
	L 31 0
	L 31.98 -0.2079
	L 32.98 -0.2079
	M 31.98 -0.2079
	L 32.96 -0.4158
	M 31 0
	L 32 0
	L 32.98 0.2079
	M 32 0
	L 33 0
	L 33.98 -0.2079
	M 33 0
	L 34 0
	L 34.98 -0.2079
	L 35.98 -0.2079
	M 34.98 -0.2079
	L 35.96 -0.4158
	L 36.87 -0.8226
	M 35.96 -0.4158
	L 36.93 -0.6237
	L 37.85 -1.03
	L 38.83 -1.238
	M 37.85 -1.03
	L 38.76 -1.437
	M 36.93 -0.6237
	L 37.91 -0.8316
	L 38.83 -1.238
	M 37.91 -0.8316
	L 38.89 -1.04
	M 34 0
	L 35 0
	L 35.98 -0.2079
	M 35 0
	L 36 0
	L 36.98 -0.2079
	L 37.89 -0.6146
	M 36.98 -0.2079
	L 37.96 -0.4158
	M 36 0
	L 37 0
	L 37.98 0.2079
	M 37 0
	L 38 0
	L 38.98 -0.2079
	M 38 0
	L 39 0
	L 39.98 -0.2079
	L 40.98 -0.2079
	M 39.98 -0.2079
	L 40.96 -0.4158
	L 41.87 -0.8226
	L 42.85 -1.03
	M 41.87 -0.8226
	L 42.78 -1.229
	M 40.96 -0.4158
	L 41.93 -0.6237
	L 42.93 -0.6237
	M 41.93 -0.6237
	L 42.91 -0.8316
	L 43.83 -1.238
	L 44.8 -1.446
	M 43.83 -1.238
	L 44.74 -1.645
	L 45.55 -2.233
	M 44.74 -1.645
	L 45.65 -2.052
	L 46.63 -2.26
	L 47.63 -2.26
	M 46.63 -2.26
	L 47.61 -2.468
	M 45.65 -2.052
	L 46.57 -2.459
	L 47.38 -3.046
	M 46.57 -2.459
	L 47.48 -2.865
	M 42.91 -0.8316
	L 43.89 -1.04
	L 44.89 -1.04
	M 43.89 -1.04
	L 44.87 -1.247
	L 45.87 -1.247
	L 46.85 -1.04
	M 45.87 -1.247
	L 46.87 -1.247
	L 47.85 -1.455
	M 46.87 -1.247
	L 47.87 -1.247
	M 44.87 -1.247
	L 45.85 -1.455
	L 46.85 -1.455
	M 45.85 -1.455
	L 46.83 -1.663
	L 47.74 -2.07
	M 46.83 -1.663
	L 47.8 -1.871
	M 39 0
	L 40 0
	L 40.98 0.2079
	M 40 0
	L 41 0
	L 41.98 0.2079
	L 42.98 0.2079
	M 41.98 0.2079
	L 42.96 0.4158
	M 41 0
	L 42 0
	L 42.98 0.2079
	M 42 0
	L 43 0
	L 43.98 -0.2079
	M 43 0
	L 44 0
	L 44.98 0.2079
	L 45.98 0.2079
	M 44.98 0.2079
	L 45.96 0.4158
	L 46.96 0.4158
	L 47.93 0.6237
	M 46.96 0.4158
	L 47.96 0.4158
	L 48.93 0.2079
	M 47.96 0.4158
	L 48.96 0.4158
	M 45.96 0.4158
	L 46.93 0.6237
	L 47.85 1.03
	M 46.93 0.6237
	L 47.91 0.8316
	M 44 0
	L 45 0
	L 45.98 0.2079
	M 45 0
	L 46 0
	L 46.98 -0.2079
	M 46 0
	L 47 0
	L 47.98 0.2079
	L 48.89 0.6146
	M 47.98 0.2079
	L 48.96 0.4158
	L 49.96 0.4158
	M 48.96 0.4158
	L 49.93 0.6237
	M 47 0
	L 48 0
	L 48.98 -0.2079
	M 48 0
	L 49 0
	L 49.98 -0.2079
	L 50.98 -0.2079
	M 49.98 -0.2079
	L 50.96 -0.4158
	L 51.87 -0.8226
	M 50.96 -0.4158
	L 51.93 -0.6237
	M 49 0
	L 50 0
	L 50.98 0.2079
	M 50 0
	L 51 0
	L 51.98 -0.2079
	M 51 0
	L 52 0
	L 52.98 -0.2079
	L 53.98 -0.2079
	M 52.98 -0.2079
	L 53.96 -0.4158
	L 54.96 -0.4158
	L 55.93 -0.6237
	M 54.96 -0.4158
	L 55.96 -0.4158
	M 53.96 -0.4158
	L 54.93 -0.6237
	L 55.93 -0.6237
	M 54.93 -0.6237
	L 55.91 -0.8316
	L 56.83 -1.238
	L 57.8 -1.446
	M 56.83 -1.238
	L 57.74 -1.645
	L 58.55 -2.233
	M 57.74 -1.645
	L 58.65 -2.052
	M 55.91 -0.8316
	L 56.89 -1.04
	L 57.89 -1.04
	M 56.89 -1.04
	L 57.87 -1.247
	M 52 0
	L 53 0
	L 53.98 0.2079
	M 53 0
	L 54 0
	L 54.98 -0.2079
	L 55.89 -0.6146
	M 54.98 -0.2079
	L 55.96 -0.4158
	M 54 0
	L 55 0
	L 55.98 -0.2079
	M 55 0
	L 56 0
"/>
</svg>
